<svg width="21" height="20" viewBox="0 0 21 20" fill="none" xmlns="http://www.w3.org/2000/svg">
<path d="M10.9375 5.19922C10.4958 5.19922 10.1375 5.55762 10.1375 5.99922C10.1375 6.44082 10.4958 6.79922 10.9375 6.79922C11.3791 6.79922 11.7375 6.44082 11.7375 5.99922C11.7375 5.55762 11.3791 5.19922 10.9375 5.19922Z" fill="#8F8F8F"/>
<path d="M10.9375 4.80078C10.2759 4.80078 9.73755 5.33918 9.73755 6.00078C9.73755 6.66238 10.2759 7.20078 10.9375 7.20078C11.5992 7.20078 12.1375 6.66238 12.1375 6.00078C12.1375 5.33918 11.5992 4.80078 10.9375 4.80078ZM10.9375 6.40078C10.7168 6.40078 10.5375 6.2216 10.5375 6.00078C10.5375 5.78 10.7168 5.60078 10.9375 5.60078C11.1583 5.60078 11.3375 5.78 11.3375 6.00078C11.3375 6.2216 11.1583 6.40078 10.9375 6.40078Z" fill="#8F8F8F"/>
<path d="M11.3376 8.40039H10.5376V14.8004H11.3376V8.40039Z" fill="#8F8F8F"/>
<path d="M11.3375 8H10.5375C10.3167 8 10.1375 8.17922 10.1375 8.4V14.8C10.1375 15.0208 10.3167 15.2 10.5375 15.2H11.3375C11.5582 15.2 11.7375 15.0208 11.7375 14.8V8.4C11.7375 8.17922 11.5582 8 11.3375 8Z" fill="#8F8F8F"/>
<path d="M10.9375 13.5996L9.73755 14.7996H12.1375L10.9375 13.5996Z" fill="#8F8F8F"/>
<path d="M12.4199 14.5162L11.2199 13.3162C11.0639 13.1602 10.8103 13.1602 10.6543 13.3162L9.45431 14.5162C9.3399 14.6306 9.30553 14.8026 9.36791 14.9522C9.42951 15.1019 9.57592 15.1994 9.73752 15.1994H12.1375C12.2991 15.1994 12.4439 15.1018 12.5063 14.9522C12.5687 14.8026 12.5343 14.6306 12.4199 14.5162ZM10.7031 14.3994L10.9375 14.165L11.1719 14.3994H10.7031Z" fill="#8F8F8F"/>
<path d="M9.73755 8.40039L10.9375 9.60039V8.40039H9.73755Z" fill="#8F8F8F"/>
<path d="M10.9375 8H9.73752C9.57592 8 9.42951 8.09762 9.36791 8.24719C9.30553 8.3968 9.3399 8.56879 9.45431 8.6832L10.6543 9.8832C10.7311 9.95922 10.8335 10 10.9375 10C10.9887 10 11.0407 9.99039 11.0903 9.96961C11.2399 9.90801 11.3375 9.7616 11.3375 9.6V8.4C11.3375 8.17922 11.1583 8 10.9375 8Z" fill="#8F8F8F"/>
<path d="M10.9375 0C5.42309 0 0.9375 4.48559 0.9375 10C0.9375 15.5144 5.42309 20 10.9375 20C16.4519 20 20.9375 15.5144 20.9375 10C20.9375 4.48559 16.4519 0 10.9375 0ZM10.9375 19.2C5.86469 19.2 1.7375 15.0728 1.7375 10C1.7375 4.92719 5.86469 0.8 10.9375 0.8C16.0103 0.8 20.1375 4.92719 20.1375 10C20.1375 15.0728 16.0103 19.2 10.9375 19.2Z" fill="#8F8F8F"/>
</svg>
