<svg width="18" height="18" viewBox="0 0 18 18" fill="none" xmlns="http://www.w3.org/2000/svg">
<g clip-path="url(#clip0_2001_2290)">
<path d="M18 6.21027C18 5.50806 17.6705 4.84486 17.0853 4.34874C17.304 4.15829 17.4387 3.90113 17.4387 3.6183C17.4387 3.03297 16.8631 2.55677 16.1555 2.55677H15.8573V2.31013C15.8573 1.7248 15.2817 1.2486 14.5741 1.2486C14.1205 1.2486 13.7214 1.44446 13.4932 1.73917C13.3179 1.58285 13.1276 1.43829 12.9233 1.30767C12.7918 1.22356 12.6027 1.24362 12.501 1.35242C12.3994 1.46123 12.4236 1.61765 12.5551 1.70175C12.8308 1.87803 13.0777 2.08299 13.2909 2.31133V2.55677H12.9927C12.2852 2.55677 11.7095 3.03297 11.7095 3.6183C11.7095 4.20364 12.2852 4.67984 12.9927 4.67984H13.2909V4.92647C13.2909 5.26359 13.4821 5.56424 13.7792 5.75884C13.581 6.12063 13.3034 6.45525 12.965 6.73913H10.798C10.9239 6.38559 10.9876 6.01902 10.9876 5.64516C10.9876 4.9457 10.7597 4.26052 10.3286 3.66386C9.66676 2.74603 8.57286 2.09843 7.33017 1.868C8.07491 1.31062 9.04439 0.998047 10.0628 0.998047C10.5883 0.998047 11.0996 1.07956 11.5824 1.24036C11.7366 1.2917 11.912 1.22994 11.9741 1.10234C12.0361 0.974738 11.9615 0.829707 11.8072 0.778342C11.2526 0.593633 10.6657 0.5 10.0628 0.5C8.7314 0.5 7.47309 0.965541 6.58566 1.78144C6.49322 1.77689 6.40046 1.77434 6.30839 1.77434C5.48365 1.77434 4.67271 1.95436 3.96324 2.29493C3.32506 2.60129 2.78076 3.03087 2.3799 3.5424H2.23324C1.00183 3.5424 0 4.37115 0 5.38982H0.000160538L0.000120422 15.6526C0.000120422 16.6712 1.00195 17.5 2.23336 17.5H14.7748C16.5531 17.5 17.9998 16.3032 17.9998 14.8322L17.9998 9.40707H18V6.21027ZM13.5919 4.18179H12.9927C12.6171 4.18179 12.3116 3.92902 12.3116 3.6183C12.3116 3.30759 12.6171 3.05481 12.9927 3.05481H13.5919C13.7582 3.05481 13.8929 2.94332 13.8929 2.80579V2.31013C13.8929 1.99942 14.1985 1.74664 14.5741 1.74664C14.9497 1.74664 15.2553 1.99942 15.2553 2.31013V2.80579C15.2553 2.94332 15.3901 3.05481 15.5563 3.05481H16.1555C16.5311 3.05481 16.8367 3.30759 16.8367 3.6183C16.8367 3.92902 16.5311 4.18179 16.1555 4.18179H15.5563C15.3901 4.18179 15.2553 4.29329 15.2553 4.43082V4.92647C15.2553 5.23719 14.9497 5.48996 14.5741 5.48996C14.1985 5.48996 13.8929 5.23719 13.8929 4.92647V4.43082C13.8929 4.29329 13.7582 4.18179 13.5919 4.18179ZM14.3255 5.96782C14.406 5.98094 14.4891 5.98798 14.5741 5.98798C15.2817 5.98798 15.8573 5.51178 15.8573 4.92644V4.67981H16.1555C16.2984 4.67981 16.4357 4.66009 16.5642 4.62429C17.0959 5.03448 17.3979 5.60438 17.3979 6.21024V7.85781C16.8124 7.18127 15.8552 6.73913 14.7749 6.73913H13.7627C13.9857 6.50073 14.1754 6.24115 14.3255 5.96782ZM6.30839 2.27238C6.43374 2.27238 6.56057 2.27726 6.68592 2.28696C7.9767 2.38478 9.14518 2.99488 9.81166 3.91919C10.1871 4.43885 10.3855 5.03568 10.3855 5.64516C10.3855 6.02102 10.3118 6.38824 10.1662 6.73913H8.04184L8.27034 6.46683C8.46051 6.24022 8.48267 5.9476 8.32806 5.70316C8.17345 5.45865 7.87017 5.30678 7.53659 5.30678H7.33269V3.61146C7.33269 3.35072 7.13975 3.12836 6.84117 3.04495C6.54259 2.96155 6.22603 3.0416 6.03473 3.24915L4.36943 5.05905C4.16248 5.28401 4.12821 5.58107 4.27997 5.83438C4.43177 6.08775 4.73838 6.24514 5.08023 6.24514H5.65098V6.73913H2.45059C2.30501 6.38821 2.23124 6.02102 2.23124 5.64516C2.23124 5.03565 2.42968 4.43882 2.80524 3.91903C3.53791 2.90334 4.88022 2.27238 6.30839 2.27238ZM6.253 6.73913V5.99611C6.253 5.85859 6.11822 5.74709 5.95197 5.74709H5.08018C4.96712 5.74709 4.86962 5.69705 4.81937 5.61321C4.7692 5.52948 4.78008 5.43505 4.84851 5.36071L6.51365 3.55097C6.55949 3.50123 6.61789 3.50824 6.64855 3.5168C6.67922 3.52537 6.73063 3.54904 6.73063 3.61146V5.55584C6.73063 5.69337 6.86542 5.80486 7.03166 5.80486H7.53659C7.69574 5.80486 7.77003 5.89521 7.79459 5.93406C7.81916 5.97287 7.86644 6.0748 7.77577 6.18281L7.30889 6.73913H6.253ZM2.04496 4.04971C1.77218 4.54826 1.62918 5.09216 1.62918 5.64516C1.62918 6.00209 1.6875 6.35232 1.80233 6.69096C1.11148 6.53414 0.602221 6.01036 0.602221 5.38976C0.602221 5.38919 0.602141 5.38863 0.6021 5.38806C0.603184 4.69751 1.23463 4.12714 2.04496 4.04971ZM6.25733 15.2402L5.03989 14.2328C5.18446 14.1504 5.30985 14.0467 5.40939 13.9271L6.79176 15.0707C6.84101 15.1114 6.86814 15.1656 6.86814 15.2233V17.002H6.34548V15.4163C6.34548 15.3502 6.31377 15.2869 6.25733 15.2402ZM4.23076 13.943C3.77412 13.943 3.4026 13.6357 3.4026 13.2579C3.4026 12.8802 3.77412 12.5729 4.23076 12.5729C4.6874 12.5729 5.05891 12.8802 5.05891 13.2579C5.05891 13.6357 4.6874 13.943 4.23076 13.943ZM12.4165 13.0267L11.1992 14.0341C11.1427 14.0808 11.111 14.1441 11.111 14.2101V17.002H10.5883V14.0172C10.5883 13.9595 10.6154 13.9052 10.6647 13.8645L12.0469 12.721C12.1465 12.8406 12.2719 12.9444 12.4165 13.0267ZM12.3974 12.0518C12.3974 11.6741 12.7689 11.3668 13.2255 11.3668C13.6822 11.3668 14.0537 11.6741 14.0537 12.0518C14.0537 12.4296 13.6822 12.7369 13.2255 12.7369C12.7689 12.7369 12.3974 12.4296 12.3974 12.0518ZM17.3977 14.8322C17.3977 16.0286 16.2211 17.002 14.7748 17.002H11.7131V14.3133L13.03 13.2236C13.094 13.2308 13.1592 13.2349 13.2255 13.2349C14.0142 13.2349 14.6558 12.7042 14.6558 12.0518C14.6558 11.3994 14.0142 10.8687 13.2255 10.8687C12.4369 10.8687 11.7953 11.3994 11.7953 12.0518C11.7953 12.1067 11.8002 12.1606 11.809 12.2135L10.239 13.5123C10.076 13.6471 9.98629 13.8264 9.98629 14.0172V17.002H9.59191V12.5839C9.59191 12.3932 9.50216 12.2139 9.3392 12.0791L8.47512 11.3643C8.48391 11.3114 8.48881 11.2575 8.48881 11.2027C8.48881 10.5504 7.84725 10.0196 7.05864 10.0196C6.27002 10.0196 5.62842 10.5504 5.62842 11.2027C5.62842 11.8551 6.27002 12.3859 7.05864 12.3859C7.1249 12.3859 7.19005 12.3818 7.25394 12.3745L7.865 12.88V13.3217C7.865 13.4592 7.99978 13.5707 8.16603 13.5707C8.33227 13.5707 8.46706 13.4592 8.46706 13.3217V12.7769C8.46706 12.7108 8.43535 12.6475 8.37887 12.6008L7.86748 12.1777C8.01218 12.0953 8.13765 11.9915 8.23723 11.8718L8.91346 12.4312C8.96271 12.472 8.98984 12.5262 8.98984 12.5839V17.002H8.46698V14.3171C8.46698 14.1796 8.33219 14.0681 8.16595 14.0681C7.9997 14.0681 7.86492 14.1796 7.86492 14.3171V17.002H7.47024V15.2233C7.47024 15.0325 7.3805 14.8532 7.21754 14.7184L5.64729 13.4195C5.65604 13.3666 5.66097 13.3128 5.66097 13.2579C5.66097 12.6055 5.01938 12.0748 4.23076 12.0748C3.44214 12.0748 2.80054 12.6055 2.80054 13.2579C2.80054 13.9103 3.44214 14.441 4.23076 14.441C4.29719 14.441 4.36245 14.4369 4.42651 14.4297L5.74341 15.5194V17.002H2.23336C1.33393 17.002 0.602181 16.3966 0.602181 15.6526L0.602221 6.65031C1.0101 7.01127 1.59044 7.23718 2.2334 7.23718H14.7749C16.2212 7.23718 17.3978 8.21053 17.3978 9.40694L17.3977 14.8322ZM7.05856 11.8878C6.60191 11.8878 6.2304 11.5804 6.2304 11.2027C6.2304 10.8249 6.60191 10.5176 7.05856 10.5176C7.51516 10.5176 7.88667 10.8249 7.88667 11.2027C7.88667 11.5804 7.51516 11.8878 7.05856 11.8878Z" fill="#8F8F8F"/>
</g>
<defs>
<clipPath id="clip0_2001_2290">
<rect width="18" height="18" fill="white"/>
</clipPath>
</defs>
</svg>
