<svg width="20" height="25" viewBox="0 0 20 25" fill="none" xmlns="http://www.w3.org/2000/svg">
<path d="M16.6638 23.4171C15.3716 24.6698 13.9606 24.472 12.6024 23.8786C11.1651 23.272 9.84643 23.2456 8.32999 23.8786C6.43114 24.6961 5.42897 24.4588 4.29493 23.4171C-2.14006 16.7843 -1.19063 6.68344 6.11466 6.31422C7.89483 6.40653 9.13436 7.29002 10.1761 7.36914C11.7321 7.05266 13.2222 6.1428 14.8837 6.26148C16.8748 6.41971 18.3781 7.2109 19.3671 8.63504C15.2529 11.1009 16.2287 16.5205 20 18.037C19.2484 20.0149 18.2726 21.9797 16.6506 23.4302L16.6638 23.4171ZM10.0442 6.2351C9.84643 3.29452 12.2332 0.868216 14.976 0.630859C15.3584 4.03296 11.8903 6.56476 10.0442 6.2351Z" fill="black"/>
</svg>
