<svg width="14" height="12" viewBox="0 0 14 12" fill="none" xmlns="http://www.w3.org/2000/svg">
<path fill-rule="evenodd" clip-rule="evenodd" d="M14 6C14 5.77186 13.9078 5.55306 13.7437 5.39174C13.5796 5.23042 13.357 5.13979 13.125 5.13979L2.98606 5.13979L6.74293 1.44663C6.8975 1.28356 6.98165 1.06789 6.97765 0.845033C6.97365 0.62218 6.88182 0.409554 6.72149 0.251949C6.56117 0.094344 6.34487 0.00406571 6.11818 0.00013375C5.89148 -0.00379821 5.67208 0.0789231 5.5062 0.23087L0.255911 5.39212C0.0920432 5.55341 2.52304e-07 5.77204 2.62268e-07 6C2.72233e-07 6.22796 0.0920432 6.44659 0.255911 6.60788L5.5062 11.7691C5.67208 11.9211 5.89148 12.0038 6.11818 11.9999C6.34487 11.9959 6.56117 11.9057 6.72149 11.748C6.88182 11.5904 6.97365 11.3778 6.97765 11.155C6.98165 10.9321 6.8975 10.7164 6.74294 10.5534L2.98606 6.86021L13.125 6.86021C13.357 6.86021 13.5796 6.76958 13.7437 6.60826C13.9078 6.44694 14 6.22814 14 6Z" fill="#171851"/>
</svg>
