<svg width="18" height="14" viewBox="0 0 18 14" fill="none" xmlns="http://www.w3.org/2000/svg">
<path d="M14.1751 7.00078L11.2751 9.90078C11.0751 10.1008 10.9791 10.3341 10.9871 10.6008C10.9951 10.8674 11.0994 11.1008 11.3001 11.3008C11.5001 11.4841 11.7334 11.5801 12.0001 11.5888C12.2668 11.5974 12.5001 11.5014 12.7001 11.3008L17.3001 6.70078C17.5001 6.50078 17.6001 6.26745 17.6001 6.00078C17.6001 5.73411 17.5001 5.50078 17.3001 5.30078L12.7001 0.700781C12.5168 0.517448 12.2874 0.425781 12.0121 0.425781C11.7368 0.425781 11.4994 0.517448 11.3001 0.700781C11.1001 0.900781 11.0001 1.13845 11.0001 1.41378C11.0001 1.68911 11.1001 1.92645 11.3001 2.12578L14.1751 5.00078H5.0001C3.61676 5.00078 2.43743 5.48845 1.4621 6.46378C0.486763 7.43911 -0.000570297 8.61811 9.72748e-05 10.0008V13.0008C9.72748e-05 13.2841 0.0960979 13.5218 0.288097 13.7138C0.480097 13.9058 0.71743 14.0014 1.0001 14.0008C1.28276 14.0001 1.5201 13.9041 1.7121 13.7128C1.9041 13.5214 2.0001 13.2841 2.0001 13.0008V10.0008C2.0001 9.16745 2.29176 8.45911 2.8751 7.87578C3.45843 7.29245 4.16676 7.00078 5.0001 7.00078H14.1751Z" fill="#171851"/>
</svg>
