<svg width="39" height="32" viewBox="0 0 39 32" fill="none" xmlns="http://www.w3.org/2000/svg">
<path fill-rule="evenodd" clip-rule="evenodd" d="M19.5 0.5C21.1672 0.5 22.8774 0.542625 24.5349 0.612375L26.4927 0.705375L28.3667 0.815813L30.1217 0.934L31.7245 1.058C33.4643 1.18954 35.1016 1.92684 36.3479 3.14004C37.5943 4.35324 38.3698 5.96452 38.5379 7.69006L38.6158 8.5135L38.7621 10.2766C38.8986 12.1037 39 14.0954 39 16C39 17.9046 38.8986 19.8963 38.7621 21.7234L38.6158 23.4865L38.5379 24.3099C38.3697 26.0358 37.5939 27.6473 36.3472 28.8605C35.1004 30.0738 33.4627 30.8109 31.7226 30.942L30.1236 31.0641L28.3686 31.1842L26.4927 31.2946L24.5349 31.3876C22.8576 31.4598 21.1789 31.4973 19.5 31.5C17.8211 31.4973 16.1424 31.4598 14.4651 31.3876L12.5073 31.2946L10.6334 31.1842L8.87835 31.0641L7.27545 30.942C5.53569 30.8105 3.89844 30.0732 2.65209 28.86C1.40573 27.6468 0.630222 26.0355 0.46215 24.3099L0.38415 23.4865L0.2379 21.7234C0.0893738 19.819 0.0100223 17.91 0 16C0 14.0954 0.1014 12.1037 0.2379 10.2766L0.38415 8.5135L0.46215 7.69006C0.630157 5.96482 1.40539 4.35379 2.65134 3.14063C3.8973 1.92747 5.53408 1.18998 7.2735 1.058L8.87445 0.934L10.6295 0.815813L12.5054 0.705375L14.4632 0.612375C16.1411 0.540159 17.8204 0.502692 19.5 0.5ZM15.6 11.3016V20.6984C15.6 21.5936 16.575 22.1516 17.355 21.7059L25.545 17.0075C25.7232 16.9056 25.8712 16.7588 25.9742 16.5819C26.0771 16.405 26.1313 16.2043 26.1313 16C26.1313 15.7957 26.0771 15.595 25.9742 15.4181C25.8712 15.2412 25.7232 15.0944 25.545 14.9925L17.355 10.296C17.1771 10.1939 16.9753 10.1402 16.7698 10.1403C16.5644 10.1403 16.3626 10.1941 16.1847 10.2962C16.0068 10.3983 15.8591 10.5452 15.7565 10.722C15.6538 10.8988 15.5999 11.0994 15.6 11.3035V11.3016Z" fill="#FF0402"/>
</svg>
