<svg width="39" height="39" viewBox="0 0 39 39" fill="none" xmlns="http://www.w3.org/2000/svg">
<path d="M29.8594 0H9.14062C4.0924 0 0 4.0924 0 9.14062V29.8594C0 34.9076 4.0924 39 9.14062 39H29.8594C34.9076 39 39 34.9076 39 29.8594V9.14062C39 4.0924 34.9076 0 29.8594 0Z" fill="url(#paint0_linear_121_4864)"/>
<path d="M29.8594 0H9.14062C4.0924 0 0 4.0924 0 9.14062V29.8594C0 34.9076 4.0924 39 9.14062 39H29.8594C34.9076 39 39 34.9076 39 29.8594V9.14062C39 4.0924 34.9076 0 29.8594 0Z" fill="url(#paint1_linear_121_4864)"/>
<path d="M19.0014 4C14.9277 4 14.4163 4.01785 12.8164 4.0906C11.2195 4.1638 10.1295 4.41655 9.17575 4.78749C8.18905 5.17059 7.3522 5.68313 6.5185 6.51712C5.68405 7.35097 5.1715 8.18781 4.7872 9.17405C4.4152 10.128 4.16215 11.2185 4.0903 12.8147C4.01875 14.4147 4 14.9262 4 19C4 23.0738 4.018 23.5835 4.0906 25.1834C4.1641 26.7803 4.41685 27.8703 4.7875 28.824C5.1709 29.8107 5.68345 30.6475 6.51745 31.4812C7.351 32.3157 8.18785 32.8294 9.1738 33.2125C10.1283 33.5835 11.2185 33.8362 12.8151 33.9094C14.4151 33.9821 14.926 34 18.9996 34C23.0737 34 23.5834 33.9821 25.1833 33.9094C26.7802 33.8362 27.8715 33.5835 28.8259 33.2125C29.8122 32.8294 30.6478 32.3157 31.4812 31.4812C32.3157 30.6475 32.8281 29.8107 33.2125 28.8245C33.5812 27.8703 33.8344 26.78 33.9094 25.1837C33.9813 23.5838 34 23.0738 34 19C34 14.9262 33.9813 14.415 33.9094 12.815C33.8344 11.2181 33.5812 10.1282 33.2125 9.1745C32.8281 8.18781 32.3157 7.35097 31.4812 6.51712C30.6469 5.68283 29.8125 5.17029 28.825 4.78764C27.8688 4.41655 26.7781 4.16365 25.1812 4.0906C23.5812 4.01785 23.0718 4 18.9967 4H19.0014ZM17.6557 6.70312C18.0552 6.70252 18.5008 6.70312 19.0014 6.70312C23.0065 6.70312 23.4811 6.71752 25.0627 6.78937C26.5252 6.85627 27.319 7.10062 27.8478 7.30597C28.5478 7.57776 29.0469 7.90281 29.5716 8.42796C30.0966 8.95295 30.4215 9.4529 30.694 10.1529C30.8994 10.6809 31.144 11.4747 31.2106 12.9372C31.2825 14.5185 31.2981 14.9934 31.2981 18.9965C31.2981 22.9997 31.2825 23.4748 31.2106 25.0559C31.1437 26.5184 30.8994 27.3122 30.694 27.8403C30.4222 28.5404 30.0966 29.0388 29.5716 29.5635C29.0466 30.0885 28.5481 30.4134 27.8478 30.6853C27.3196 30.8916 26.5252 31.1353 25.0627 31.2022C23.4814 31.2741 23.0065 31.2897 19.0014 31.2897C14.9961 31.2897 14.5213 31.2741 12.9402 31.2022C11.4777 31.1347 10.6838 30.8904 10.1547 30.685C9.45475 30.4131 8.95465 30.0882 8.42965 29.5632C7.90465 29.0382 7.57975 28.5395 7.3072 27.8391C7.10185 27.311 6.8572 26.5172 6.7906 25.0547C6.71875 23.4734 6.70435 22.9985 6.70435 18.9928C6.70435 14.9871 6.71875 14.5147 6.7906 12.9335C6.8575 11.471 7.10185 10.6772 7.3072 10.1484C7.57915 9.4484 7.90465 8.94845 8.4298 8.42346C8.95495 7.89846 9.45475 7.57341 10.1548 7.30102C10.6835 7.09477 11.4777 6.85102 12.9402 6.78382C14.3239 6.72127 14.8602 6.70252 17.6557 6.69937V6.70312ZM27.0084 9.1937C26.0146 9.1937 25.2084 9.99919 25.2084 10.9931C25.2084 11.9868 26.0146 12.7931 27.0084 12.7931C28.0021 12.7931 28.8084 11.9868 28.8084 10.9931C28.8084 9.99934 28.0021 9.1931 27.0084 9.1931V9.1937ZM19.0014 11.2968C14.7474 11.2968 11.2983 14.7459 11.2983 19C11.2983 23.2541 14.7474 26.7015 19.0014 26.7015C23.2555 26.7015 26.7034 23.2541 26.7034 19C26.7034 14.746 23.2552 11.2968 19.0011 11.2968H19.0014ZM19.0014 14C21.7627 14 24.0015 16.2384 24.0015 19C24.0015 21.7613 21.7627 24.0001 19.0014 24.0001C16.24 24.0001 14.0014 21.7613 14.0014 19C14.0014 16.2384 16.2399 14 19.0014 14Z" fill="white"/>
<defs>
<linearGradient id="paint0_linear_121_4864" x1="10.3594" y1="80.6557" x2="10.3594" y2="3.35186" gradientUnits="userSpaceOnUse">
<stop stop-color="#FFDD55"/>
<stop offset="0.1" stop-color="#FFDD55"/>
<stop offset="0.5" stop-color="#FF543E"/>
<stop offset="1" stop-color="#C837AB"/>
</linearGradient>
<linearGradient id="paint1_linear_121_4864" x1="10.3594" y1="80.6557" x2="10.3594" y2="3.35186" gradientUnits="userSpaceOnUse">
<stop stop-color="#FFDD55"/>
<stop offset="0.1" stop-color="#FFDD55"/>
<stop offset="0.5" stop-color="#FF543E"/>
<stop offset="1" stop-color="#C837AB"/>
</linearGradient>
</defs>
</svg>
