<svg width="36" height="41" viewBox="0 0 36 41" fill="none" xmlns="http://www.w3.org/2000/svg">
<path d="M12.4739 21.4057C9.4215 21.4057 6.9555 24.0048 7.00061 27.1902C7.03068 29.2345 8.09828 31.0095 9.6696 32C9.1358 31.1363 8.82003 30.1141 8.805 29.0127C8.75989 25.8273 11.2259 23.2282 14.2783 23.2282C14.8798 23.2282 15.4587 23.3312 16 23.5135V17.1347C15.4361 17.0475 14.8572 17 14.2783 17C14.2482 17 14.2257 17 14.1956 17V21.691C13.6543 21.5087 13.0754 21.4057 12.4739 21.4057Z" fill="#F00044"/>
<path d="M26.8409 2H26.7892H25C25.5161 4.43725 26.9699 6.5587 29 8C27.6667 6.34008 26.8581 4.26721 26.8409 2Z" fill="#F00044"/>
<path d="M36 12.174C35.374 12.174 34.7717 12.1107 34.1774 12L24.4305 13.2499L14.2081 39.0461C13.6138 39.1331 13.0036 39.1806 12.3934 39.1806C9.68328 39.1806 7.09995 38.3025 5 36.6809C5.23773 36.9656 5.49131 37.2425 5.76866 37.5115C8.05087 39.758 11.078 41 14.3032 41C14.9133 41 15.5235 40.9525 16.1178 40.8655C18.6536 40.4937 20.9913 39.3309 22.8377 37.5115C25.104 35.2728 26.3561 32.3063 26.3719 29.1421L26.2531 15.0693C27.3308 15.8999 28.5115 16.596 29.7873 17.126C31.7605 17.9566 33.8525 18.3838 36 18.3838" fill="#F00044"/>
<path d="M5.46578 20.4918C7.74317 18.1825 10.7717 16.9013 14 16.8769V15.1387C13.4007 15.049 12.7854 15 12.1701 15C8.90983 15 5.84934 16.2812 3.54797 18.615C1.28656 20.908 -0.00795407 24.0415 3.67774e-05 27.2975C3.67774e-05 30.5779 1.27058 33.6543 3.56395 35.98C3.93153 36.3472 4.3071 36.6899 4.70665 37C2.90071 34.8049 1.91784 32.0631 1.90985 29.1743C1.91784 25.9184 3.20437 22.7849 5.46578 20.4918Z" fill="#08FFF9"/>
<path d="M34 12V10.1472H33.9838C31.7358 10.1472 29.6658 9.35065 28 8C29.4474 10.0433 31.566 11.4978 34 12Z" fill="#08FFF9"/>
<path d="M13.4828 34.9915C14.2273 35.032 14.9404 34.9265 15.5987 34.7074C17.8715 33.9365 19.5094 31.7455 19.5094 29.165L19.5172 19.5082V1.86643H24C23.8824 1.25781 23.8197 0.641077 23.8119 0H17.6364V17.6337L17.6285 27.2904C17.6285 29.871 15.9906 32.062 13.7179 32.8329C13.0596 33.0601 12.3464 33.1656 11.6019 33.1169C10.6536 33.0601 9.76803 32.768 9 32.2973C9.96395 33.8391 11.6097 34.886 13.4828 34.9915Z" fill="#08FFF9"/>
<path d="M14 38.8715C16.5397 38.4966 18.881 37.3239 20.7302 35.4891C23 33.2315 24.254 30.24 24.2699 27.049L24.2381 12.8572C25.3175 13.6949 26.5 14.3969 27.7778 14.9314C29.754 15.769 31.8492 16.1998 34 16.1998V11.5968C31.6111 11.1341 29.5317 9.79391 28.1111 7.91125C26.2381 6.49127 24.8889 4.40119 24.4206 2H19.873V19.3349L19.8651 28.828C19.8651 31.3648 18.2064 33.5187 15.9048 34.2765C15.2381 34.4999 14.5159 34.6036 13.7619 34.5557C11.8572 34.452 10.1984 33.4229 9.22225 31.9152C7.56352 30.926 6.43654 29.1311 6.40479 27.0729C6.35717 23.866 8.96035 21.2494 12.1826 21.2494C12.8175 21.2494 13.4286 21.3531 14 21.5366V16.814C10.7937 16.8379 7.78574 18.0904 5.52384 20.348C3.27781 22.5896 1.9921 25.653 2.00004 28.828C2.00004 31.652 2.97623 34.3324 4.77781 36.4783C6.88892 38.1137 9.46828 38.9991 12.1826 38.9991C12.7937 39.0071 13.4048 38.9593 14 38.8715Z" fill="black"/>
</svg>
