<svg width="39" height="39" viewBox="0 0 39 39" fill="none" xmlns="http://www.w3.org/2000/svg">
<path d="M19.5 0C14.3295 0 9.36609 2.05573 5.71289 5.71137C2.05595 9.36848 0.00104644 14.3282 0 19.5C0 24.6696 2.05664 29.633 5.71289 33.2886C9.36609 36.9443 14.3295 39 19.5 39C24.6705 39 29.6339 36.9443 33.2871 33.2886C36.9434 29.633 39 24.6696 39 19.5C39 14.3304 36.9434 9.36701 33.2871 5.71137C29.6339 2.05573 24.6705 0 19.5 0Z" fill="#0089CC"/>
<path d="M8.44343 19.749C14.0816 17.209 17.8404 15.5344 19.7198 14.7253C25.0922 12.415 26.2071 12.0137 26.9353 12.0001C27.0954 11.9975 27.452 12.0384 27.6846 12.2329C27.878 12.397 27.9324 12.6189 27.9596 12.7746C27.9838 12.9303 28.017 13.285 27.9898 13.5618C27.6997 16.7243 26.4398 24.3986 25.7992 27.9408C25.5303 29.4395 24.9955 29.942 24.4788 29.9911C23.3548 30.098 22.5027 29.2236 21.4149 28.4864C19.7138 27.3323 18.7529 26.6142 17.1002 25.4883C15.1905 24.1871 16.4294 23.4718 17.5171 22.303C17.8012 21.9971 22.7505 17.3424 22.8441 16.9202C22.8562 16.8674 22.8683 16.6706 22.7535 16.5668C22.6417 16.4627 22.4755 16.4984 22.3546 16.5265C22.1824 16.5665 19.466 18.4252 14.1965 22.1024C13.426 22.6505 12.728 22.9177 12.0995 22.9036C11.4106 22.8883 10.0811 22.4999 9.09306 22.168C7.88444 21.7608 6.92057 21.5455 7.00517 20.854C7.04748 20.494 7.5279 20.1255 8.44343 19.749Z" fill="white"/>
</svg>
