<svg width="16" height="17" viewBox="0 0 16 17" fill="none" xmlns="http://www.w3.org/2000/svg">
<path d="M15.4024 3.38089L2.38045 16.4029C2.07152 16.7118 1.4122 16.5548 0.910181 16.0528C0.408159 15.5507 0.251163 14.8914 0.560085 14.5825L13.5821 1.56053C13.891 1.25161 14.5503 1.4086 15.0523 1.91062C15.5543 2.41264 15.7113 3.07197 15.4024 3.38089Z" fill="#444444"/>
<path d="M13.6006 16.377L0.57859 3.35506C0.269669 3.04613 0.426665 2.38681 0.928686 1.88479C1.43071 1.38277 2.09003 1.22577 2.39895 1.53469L15.4209 14.5567C15.7298 14.8656 15.5728 15.5249 15.0708 16.0269C14.5688 16.5289 13.9095 16.6859 13.6006 16.377Z" fill="#444444"/>
</svg>
