<svg width="18" height="18" viewBox="0 0 18 18" fill="none" xmlns="http://www.w3.org/2000/svg">
<g clip-path="url(#clip0_2001_2198)">
<path d="M17.7 17.398H16.8V16.798C16.8 16.618 16.68 16.498 16.5 16.498C16.32 16.498 16.2 16.618 16.2 16.798V17.398H15V16.798C15 16.618 14.88 16.498 14.7 16.498C14.52 16.498 14.4 16.618 14.4 16.798V17.398H13.2V16.798C13.2 16.618 13.08 16.498 12.9 16.498C12.72 16.498 12.6 16.618 12.6 16.798V17.398H11.4V16.798C11.4 16.618 11.28 16.498 11.1 16.498C10.92 16.498 10.8 16.618 10.8 16.798V17.398H9.6V16.798C9.6 16.618 9.48 16.498 9.3 16.498C9.12 16.498 9 16.618 9 16.798V17.398H7.8V16.798C7.8 16.618 7.68 16.498 7.5 16.498C7.32 16.498 7.2 16.618 7.2 16.798V17.398H6V16.798C6 16.618 5.88 16.498 5.7 16.498C5.52 16.498 5.4 16.618 5.4 16.798V17.398H4.2V16.798C4.2 16.618 4.08 16.498 3.9 16.498C3.72 16.498 3.6 16.618 3.6 16.798V17.398H2.4V16.798C2.4 16.618 2.28 16.498 2.1 16.498C1.92 16.498 1.8 16.618 1.8 16.798V17.398H0.6V0.298047C0.6 0.118047 0.48 -0.00195312 0.3 -0.00195312C0.12 -0.00195312 0 0.118047 0 0.298047V17.698C0 17.878 0.12 17.998 0.3 17.998H17.7C17.88 17.998 18 17.878 18 17.698C18 17.518 17.88 17.398 17.7 17.398Z" fill="#8F8F8F"/>
<path d="M3.29995 11.1012H2.69995V10.5012C2.69995 10.3212 2.57995 10.2012 2.39995 10.2012C2.21995 10.2012 2.09995 10.3212 2.09995 10.5012V11.1012H1.49995C1.31995 11.1012 1.19995 11.2212 1.19995 11.4012V14.4012C1.19995 14.5812 1.31995 14.7012 1.49995 14.7012H2.09995V15.3012C2.09995 15.4812 2.21995 15.6012 2.39995 15.6012C2.57995 15.6012 2.69995 15.4812 2.69995 15.3012V14.7012H3.29995C3.47995 14.7012 3.59995 14.5812 3.59995 14.4012V11.4012C3.59995 11.2212 3.47995 11.1012 3.29995 11.1012ZM2.99995 14.1012H1.79995V11.7012H2.99995V14.1012Z" fill="#8F8F8F"/>
<path d="M6.8998 6.30039H6.2998V5.70039C6.2998 5.52039 6.1798 5.40039 5.9998 5.40039C5.8198 5.40039 5.6998 5.52039 5.6998 5.70039V6.30039H5.0998C4.9198 6.30039 4.7998 6.42039 4.7998 6.60039V9.60039C4.7998 9.78039 4.9198 9.90039 5.0998 9.90039H5.6998V10.5004C5.6998 10.6804 5.8198 10.8004 5.9998 10.8004C6.1798 10.8004 6.2998 10.6804 6.2998 10.5004V9.90039H6.8998C7.0798 9.90039 7.1998 9.78039 7.1998 9.60039V6.60039C7.1998 6.42039 7.0798 6.30039 6.8998 6.30039ZM6.5998 9.30039H5.3998V6.90039H6.5998V9.30039Z" fill="#8F8F8F"/>
<path d="M10.4999 9.59922H9.8999V8.99922C9.8999 8.81922 9.7799 8.69922 9.5999 8.69922C9.4199 8.69922 9.2999 8.81922 9.2999 8.99922V9.59922H8.6999C8.5199 9.59922 8.3999 9.71922 8.3999 9.89922V12.8992C8.3999 13.0792 8.5199 13.1992 8.6999 13.1992H9.2999V13.7992C9.2999 13.9792 9.4199 14.0992 9.5999 14.0992C9.7799 14.0992 9.8999 13.9792 9.8999 13.7992V13.1992H10.4999C10.6799 13.1992 10.7999 13.0792 10.7999 12.8992V9.89922C10.7999 9.71922 10.6799 9.59922 10.4999 9.59922ZM10.1999 12.5992H8.9999V10.1992H10.1999V12.5992Z" fill="#8F8F8F"/>
<path d="M14.1 3.59922H13.5V2.99922C13.5 2.81922 13.38 2.69922 13.2 2.69922C13.02 2.69922 12.9 2.81922 12.9 2.99922V3.59922H12.3C12.12 3.59922 12 3.71922 12 3.89922V6.89922C12 7.07922 12.12 7.19922 12.3 7.19922H12.9V7.79922C12.9 7.97922 13.02 8.09922 13.2 8.09922C13.38 8.09922 13.5 7.97922 13.5 7.79922V7.19922H14.1C14.28 7.19922 14.4 7.07922 14.4 6.89922V3.89922C14.4 3.71922 14.28 3.59922 14.1 3.59922ZM13.8 6.59922H12.6V4.19922H13.8V6.59922Z" fill="#8F8F8F"/>
</g>
<defs>
<clipPath id="clip0_2001_2198">
<rect width="18" height="18" fill="white"/>
</clipPath>
</defs>
</svg>
