<svg width="20" height="20" viewBox="0 0 20 20" fill="none" xmlns="http://www.w3.org/2000/svg">
<path d="M9.99995 17.5383C5.67251 17.5383 1.8262 15.0008 0.202223 11.0732C-0.06704 10.4043 -0.06704 9.64294 0.199781 8.97911C0.728233 7.6866 1.5461 6.4892 2.5656 5.51317C2.81487 5.27436 3.21159 5.28353 3.44926 5.5332C3.68769 5.78286 3.67929 6.17945 3.42926 6.41826C2.53553 7.27412 1.81948 8.32277 1.3585 9.45076C1.21257 9.81402 1.21257 10.234 1.36018 10.5997C2.78739 14.0514 6.17944 16.2859 9.99995 16.2859C11.0746 16.2859 12.1324 16.1038 13.1427 15.7456C13.4705 15.6312 13.8255 15.8007 13.9414 16.1272C14.0565 16.4537 13.8864 16.811 13.5604 16.9271C12.4151 17.3321 11.2171 17.5383 9.99995 17.5383Z" fill="black"/>
<path d="M9.74248 13.3454C9.72324 13.3454 9.70401 13.3447 9.68493 13.343C8.09103 13.1976 6.82973 11.9335 6.68457 10.3379C6.65297 9.9931 6.90728 9.68917 7.25072 9.65737C7.58913 9.62312 7.89839 9.87951 7.93014 10.2244C8.01852 11.2021 8.82204 12.0062 9.79819 12.0954C10.1426 12.1272 10.3959 12.4312 10.3643 12.7759C10.3343 13.1016 10.0617 13.3454 9.74248 13.3454Z" fill="black"/>
<path d="M15.3445 16.0008C15.1352 16.0008 14.9301 15.8956 14.8118 15.7036C14.6309 15.4088 14.7226 15.0239 15.016 14.8419C16.6525 13.8315 17.9071 12.3621 18.6431 10.592C18.7874 10.2329 18.7874 9.81288 18.6407 9.44641C17.2127 5.99454 13.8205 3.76026 9.99998 3.76026C8.20519 3.76026 6.47376 4.2579 4.99144 5.19892C4.69882 5.38345 4.3137 5.2983 4.1287 5.00598C3.94369 4.71381 4.03039 4.32716 4.32133 4.14186C6.00438 3.07303 7.96753 2.50781 9.99998 2.50781C14.3274 2.50781 18.1737 5.04527 19.7977 8.97292C20.067 9.6418 20.067 10.4032 19.8003 11.067C18.9591 13.0876 17.5328 14.7592 15.6721 15.9082C15.5695 15.9707 15.4562 16.0008 15.3445 16.0008Z" fill="black"/>
<path d="M11.9173 12.57C11.759 12.57 11.6006 12.5099 11.4789 12.3905C11.2329 12.1476 11.2297 11.7518 11.4713 11.5046C11.8665 11.1022 12.084 10.5761 12.084 10.0234C12.084 8.87278 11.1488 7.93604 9.99997 7.93604C9.44816 7.93604 8.92292 8.1539 8.52116 8.54973C8.27601 8.79266 7.88006 8.79006 7.63659 8.54208C7.39404 8.29578 7.3974 7.89919 7.64407 7.65626C8.28105 7.02927 9.11799 6.68359 9.99997 6.68359C11.839 6.68359 13.3345 8.18142 13.3345 10.0234C13.3345 10.9068 12.9893 11.7451 12.3626 12.383C12.2408 12.5073 12.0791 12.57 11.9173 12.57Z" fill="black"/>
</svg>
