<svg width="20" height="21" viewBox="0 0 20 21" fill="none" xmlns="http://www.w3.org/2000/svg">
<path d="M9.99995 18.0383C5.67251 18.0383 1.8262 15.5008 0.202223 11.5732C-0.06704 10.9043 -0.06704 10.1429 0.199781 9.47911C0.728233 8.1866 1.5461 6.9892 2.5656 6.01317C2.81487 5.77436 3.21159 5.78353 3.44926 6.0332C3.68769 6.28286 3.67929 6.67945 3.42926 6.91826C2.53553 7.77412 1.81948 8.82277 1.3585 9.95076C1.21257 10.314 1.21257 10.734 1.36018 11.0997C2.78739 14.5514 6.17944 16.7859 9.99995 16.7859C11.0746 16.7859 12.1324 16.6038 13.1427 16.2456C13.4705 16.1312 13.8255 16.3007 13.9414 16.6272C14.0565 16.9537 13.8864 17.311 13.5604 17.4271C12.4151 17.8321 11.2171 18.0383 9.99995 18.0383Z" fill="black"/>
<path d="M9.74248 13.8454C9.72324 13.8454 9.70401 13.8447 9.68493 13.843C8.09103 13.6976 6.82973 12.4335 6.68457 10.8379C6.65297 10.4931 6.90728 10.1892 7.25072 10.1574C7.58913 10.1231 7.89839 10.3795 7.93014 10.7244C8.01852 11.7021 8.82204 12.5062 9.79819 12.5954C10.1426 12.6272 10.3959 12.9312 10.3643 13.2759C10.3343 13.6016 10.0617 13.8454 9.74248 13.8454Z" fill="black"/>
<path d="M18.5448 19.7078C18.3847 19.7078 18.2247 19.6468 18.1029 19.524L1.0134 2.40733C0.769173 2.16271 0.769173 1.76597 1.0134 1.52135C1.25763 1.27674 1.65359 1.27674 1.89782 1.52135L18.9875 18.6382C19.2317 18.8828 19.2317 19.2794 18.9875 19.524C18.8649 19.6468 18.7048 19.7078 18.5448 19.7078Z" fill="black"/>
<path d="M15.3445 16.5008C15.1352 16.5008 14.9301 16.3956 14.8118 16.2036C14.6309 15.9088 14.7226 15.5239 15.016 15.3419C16.6525 14.3315 17.9071 12.8621 18.6431 11.092C18.7874 10.7329 18.7874 10.3129 18.6407 9.94641C17.2127 6.49454 13.8205 4.26026 9.99998 4.26026C8.20519 4.26026 6.47376 4.7579 4.99144 5.69892C4.69882 5.88345 4.3137 5.7983 4.1287 5.50598C3.94369 5.21381 4.03039 4.82716 4.32133 4.64186C6.00438 3.57303 7.96753 3.00781 9.99998 3.00781C14.3274 3.00781 18.1737 5.54527 19.7977 9.47292C20.067 10.1418 20.067 10.9032 19.8003 11.567C18.9591 13.5876 17.5328 15.2592 15.6721 16.4082C15.5695 16.4707 15.4562 16.5008 15.3445 16.5008Z" fill="black"/>
<path d="M11.9173 13.07C11.759 13.07 11.6006 13.0099 11.4789 12.8905C11.2329 12.6476 11.2297 12.2518 11.4713 12.0046C11.8665 11.6022 12.084 11.0761 12.084 10.5234C12.084 9.37278 11.1488 8.43604 9.99997 8.43604C9.44816 8.43604 8.92292 8.6539 8.52116 9.04973C8.27601 9.29266 7.88006 9.29006 7.63659 9.04208C7.39404 8.79578 7.3974 8.39919 7.64407 8.15626C8.28105 7.52927 9.11799 7.18359 9.99997 7.18359C11.839 7.18359 13.3345 8.68142 13.3345 10.5234C13.3345 11.4068 12.9893 12.2451 12.3626 12.883C12.2408 13.0073 12.0791 13.07 11.9173 13.07Z" fill="black"/>
</svg>
