<svg width="20" height="21" viewBox="0 0 20 21" fill="none" xmlns="http://www.w3.org/2000/svg">
<path d="M6.8676 0.85357C4.80441 1.56931 3.02511 2.92781 1.79106 4.72953C0.557016 6.53125 -0.066736 8.68121 0.0114266 10.8636C0.0895893 13.046 0.865547 15.1459 2.22532 16.8547C3.5851 18.5635 5.45702 19.7913 7.56613 20.3576C9.27604 20.7988 11.0675 20.8182 12.7866 20.414C14.3438 20.0642 15.7836 19.316 16.9648 18.2426C18.1942 17.0913 19.0866 15.6267 19.546 14.0063C20.0453 12.2441 20.1342 10.3909 19.8057 8.58903H10.2038V12.5721H15.7646C15.6534 13.2074 15.4153 13.8137 15.0644 14.3548C14.7134 14.8959 14.257 15.3606 13.7222 15.7211C13.0432 16.1703 12.2777 16.4725 11.475 16.6084C10.6699 16.7581 9.84411 16.7581 9.03901 16.6084C8.22302 16.4397 7.45111 16.1029 6.77242 15.6195C5.68211 14.8477 4.86344 13.7513 4.43323 12.4866C3.99575 11.1983 3.99575 9.80154 4.43323 8.5132C4.73947 7.61014 5.24571 6.78791 5.91418 6.10787C6.67916 5.31537 7.64765 4.74888 8.71339 4.47056C9.77913 4.19225 10.9009 4.21286 11.9557 4.53013C12.7797 4.78307 13.5332 5.22501 14.1562 5.82072C14.7832 5.19693 15.4091 4.57154 16.034 3.94453C16.3566 3.60736 16.7083 3.28633 17.0261 2.94109C16.0752 2.0562 14.9591 1.36764 13.7416 0.914873C11.5245 0.109853 9.09867 0.088219 6.8676 0.85357Z" fill="white"/>
<path d="M6.86811 0.854354C9.09899 0.0884829 11.5248 0.109548 13.7421 0.914044C14.9598 1.36989 16.0755 2.06176 17.025 2.94994C16.7024 3.29518 16.362 3.61782 16.0329 3.95338C15.407 4.57824 14.7816 5.20094 14.1567 5.8215C13.5337 5.22579 12.7802 4.78386 11.9562 4.53091C10.9018 4.21253 9.78002 4.19073 8.714 4.46791C7.64798 4.74508 6.67889 5.31053 5.91307 6.1022C5.2446 6.78224 4.73836 7.60447 4.43212 8.50753L1.08789 5.91829C2.28492 3.54452 4.35751 1.72877 6.86811 0.854354Z" fill="#E33629"/>
<path d="M0.200036 8.48301C0.379785 7.59217 0.678205 6.72947 1.08732 5.91797L4.43155 8.51366C3.99406 9.802 3.99406 11.1987 4.43155 12.4871C3.31734 13.3474 2.2026 14.2121 1.08732 15.0811C0.0631546 13.0425 -0.249197 10.7198 0.200036 8.48301Z" fill="#F8BD00"/>
<path d="M10.2038 8.58789H19.8058C20.1343 10.3898 20.0454 12.2429 19.5461 14.0051C19.0867 15.6256 18.1943 17.0902 16.9649 18.2415C15.8857 17.3994 14.8016 16.5637 13.7223 15.7216C14.2574 15.3607 14.7141 14.8955 15.065 14.3538C15.416 13.8121 15.6539 13.2052 15.7647 12.5694H10.2038C10.2022 11.2433 10.2038 9.91558 10.2038 8.58789Z" fill="#587DBD"/>
<path d="M1.08594 15.0824C2.20122 14.222 3.31596 13.3573 4.43017 12.4883C4.86124 13.7534 5.68108 14.8499 6.77259 15.6212C7.45338 16.1024 8.22697 16.4364 9.04402 16.602C9.84911 16.7517 10.6749 16.7517 11.48 16.602C12.2827 16.4661 13.0482 16.1639 13.7272 15.7147C14.8065 16.5569 15.8906 17.3925 16.9698 18.2346C15.7888 19.3086 14.349 20.0574 12.7916 20.4076C11.0725 20.8118 9.28104 20.7924 7.57114 20.3512C6.21877 19.9901 4.95556 19.3535 3.8607 18.4814C2.70185 17.5614 1.75536 16.4019 1.08594 15.0824Z" fill="#319F43"/>
</svg>
