<svg width="21" height="20" viewBox="0 0 21 20" fill="none" xmlns="http://www.w3.org/2000/svg">
<g clip-path="url(#clip0_2001_90)">
<path d="M18.0086 2.92909C16.1199 1.04028 13.6085 0 10.9375 0C8.26647 0 5.75545 1.04028 3.86659 2.92909C1.97778 4.81795 0.9375 7.32897 0.9375 10C0.9375 12.6714 1.97778 15.1826 3.86659 17.0713C5.75525 18.9599 8.26647 20 10.9375 20C13.6087 20 16.1199 18.9599 18.0086 17.0713C19.8972 15.1826 20.9375 12.6714 20.9375 10C20.9375 7.32897 19.8972 4.81775 18.0086 2.92909ZM17.5666 16.6293C15.7961 18.3999 13.4418 19.375 10.9375 19.375C8.43336 19.375 6.07913 18.3999 4.30853 16.6293C2.53774 14.8588 1.56255 12.5043 1.56255 10C1.56255 7.49606 2.53774 5.14182 4.30853 3.37103C6.07932 1.60024 8.43356 0.625046 10.9375 0.625046C13.4416 0.625046 15.7959 1.60024 17.5666 3.37103C19.3372 5.14163 20.3125 7.49586 20.3125 10C20.3125 12.5045 19.3372 14.8588 17.5666 16.6293Z" fill="#8F8F8F"/>
<path d="M13.5639 4.98633H8.33055C7.00361 4.98633 5.92407 6.06591 5.92407 7.39286V12.6262C5.92407 13.9532 7.00361 15.0327 8.33055 15.0327H13.5639C14.8909 15.0327 15.9704 13.9532 15.9704 12.6262V7.39286C15.9704 6.06591 14.8909 4.98633 13.5639 4.98633ZM15.3368 12.6261C15.3368 13.6037 14.5415 14.399 13.5639 14.399H8.33055C7.35307 14.399 6.55786 13.6037 6.55786 12.6261V7.39286C6.55786 6.41537 7.35312 5.62016 8.33055 5.62016H13.5639C14.5415 5.62016 15.3368 6.41542 15.3368 7.39286V12.6261Z" fill="#8F8F8F"/>
<path d="M13.7551 6.82227C13.5423 6.82227 13.3691 6.99536 13.3691 7.20805C13.3691 7.42075 13.5423 7.5938 13.7551 7.5938C13.9678 7.5938 14.1408 7.42075 14.1408 7.20805C14.1408 6.99536 13.9678 6.82227 13.7551 6.82227Z" fill="#8F8F8F"/>
<path d="M10.9472 7.54688C9.58945 7.54688 8.48486 8.65146 8.48486 10.0092C8.48486 11.367 9.58945 12.4717 10.9472 12.4717C12.305 12.4717 13.4096 11.367 13.4096 10.0092C13.4096 8.65146 12.305 7.54688 10.9472 7.54688ZM10.9472 11.8381C9.93876 11.8381 9.1184 11.0176 9.1184 10.0092C9.1184 9.00097 9.93876 8.18076 10.9472 8.18076C11.9555 8.18076 12.7757 9.00097 12.7757 10.0092C12.7758 11.0176 11.9555 11.8381 10.9472 11.8381Z" fill="#8F8F8F"/>
</g>
<defs>
<clipPath id="clip0_2001_90">
<rect width="20" height="20" fill="white" transform="translate(0.9375)"/>
</clipPath>
</defs>
</svg>
