<svg width="20" height="20" viewBox="0 0 20 20" fill="none" xmlns="http://www.w3.org/2000/svg">
<path d="M3.50731 18.9953C1.75654 18.8801 0.369147 17.6454 0.0520274 15.92C-0.0173425 15.5545 -0.0173425 3.44412 0.0520274 3.07864C0.339417 1.51133 1.52201 0.329266 3.09439 0.0460972C3.2992 0.00658532 4.44545 0 9.51937 0C15.2705 0 15.7164 0.00329266 15.9807 0.0559752C17.335 0.332558 18.3987 1.26438 18.8149 2.54522C19.0098 3.1379 18.9999 2.79876 18.9999 9.49932C18.9999 16.1999 19.0098 15.8607 18.8149 16.4534C18.5176 17.3688 17.8834 18.1162 17.0179 18.5739C16.6975 18.7451 16.463 18.8307 16.06 18.9262C15.7627 18.9953 15.756 18.9953 9.71756 18.9986C6.39111 19.0019 3.5998 18.9986 3.50731 18.9953ZM4.58089 16.4798C4.97068 16.4172 5.29111 16.246 5.70732 15.8739C5.83946 15.7521 6.03105 15.6138 6.13345 15.5677C6.30192 15.4821 6.35147 15.4755 6.85688 15.4656C7.38542 15.4524 7.40193 15.4557 7.62986 15.5446C7.80163 15.6105 7.93707 15.6961 8.13197 15.8673C8.6638 16.3349 8.90164 16.4468 9.42027 16.4699C9.7506 16.483 9.80345 16.4765 10.0083 16.404C10.3155 16.2888 10.5104 16.1702 10.7317 15.9595C10.9134 15.7883 11.1875 15.3833 11.1875 15.2845C11.1875 15.2582 11.2074 15.1956 11.2338 15.1429C11.3065 14.9915 11.3263 14.6918 11.2866 14.4153C11.1975 13.8357 10.8044 13.3122 10.2527 13.0422C9.7539 12.7986 9.40705 12.7722 8.90825 12.95C8.71005 13.0192 8.3632 13.2431 8.13857 13.4439C7.94368 13.6217 7.72566 13.7436 7.48782 13.8094C7.31605 13.8555 6.49352 13.8423 6.2821 13.7897C6.02775 13.7238 5.7866 13.5592 5.56198 13.299C5.21843 12.9039 5.14246 12.68 5.14246 12.0676C5.14576 11.4617 5.24156 11.2115 5.64456 10.7604C5.96498 10.4048 6.11694 10.0788 6.18961 9.5981C6.20943 9.44334 6.09381 8.97908 5.96498 8.73213C5.91213 8.62347 5.77339 8.42262 5.66108 8.29091C5.22504 7.76738 5.14246 7.55994 5.14246 6.9508C5.14246 6.42727 5.22174 6.17373 5.49591 5.80496C5.65117 5.60081 5.97489 5.37033 6.24907 5.26496C6.38451 5.21557 6.50673 5.2024 6.92625 5.2024C7.60013 5.2024 7.74878 5.25179 8.15839 5.61727C8.63738 6.04532 8.90825 6.17044 9.40705 6.19678C9.71096 6.21325 9.78033 6.20666 9.96862 6.1441C10.2395 6.04861 10.5137 5.88398 10.7515 5.66666C11.1942 5.26825 11.3626 5.20898 12.0629 5.20569C12.5716 5.2024 12.5981 5.20569 12.7831 5.2913C12.9945 5.39008 13.1629 5.51191 13.4206 5.74898C13.7245 6.02886 14.0714 6.17044 14.5338 6.19678C14.8113 6.21325 14.884 6.20666 15.0723 6.14081C15.4026 6.03215 15.6437 5.8741 15.8981 5.6041C16.1293 5.36374 16.3407 5.00813 16.3407 4.86326C16.3407 4.82704 16.3573 4.78423 16.3738 4.77435C16.3936 4.76448 16.4068 4.60643 16.4068 4.41216C16.4068 4.11582 16.3969 4.04668 16.311 3.83924C16.0798 3.26961 15.7131 2.90742 15.102 2.6473C15.0657 2.63413 14.95 2.60449 14.8443 2.58803C14.3653 2.50242 13.7939 2.70656 13.3149 3.13461C13.1464 3.28278 12.9482 3.42107 12.8128 3.48363C12.5915 3.589 12.5915 3.589 12.0431 3.589C11.65 3.589 11.4683 3.57583 11.399 3.5429C11.0884 3.39802 10.9926 3.34205 10.8077 3.17412C10.5929 2.98315 10.3716 2.82181 10.2296 2.75925C9.82988 2.58474 9.63828 2.54852 9.31456 2.59132C8.89504 2.6473 8.54158 2.8251 8.165 3.17083C8.04938 3.27949 7.8644 3.40132 7.71905 3.47046C7.47461 3.5857 7.46139 3.589 6.99893 3.59888C6.58601 3.60875 6.50012 3.60217 6.28871 3.53631C5.99471 3.44741 5.93856 3.41119 5.63795 3.14449C4.9905 2.56169 4.35626 2.42998 3.67578 2.72961C2.98869 3.03254 2.53283 3.71083 2.53283 4.43521C2.53283 4.59655 2.54604 4.75131 2.56256 4.78423C2.57907 4.81387 2.62532 4.92911 2.66496 5.03777C2.7079 5.14642 2.76076 5.25837 2.78388 5.28801C2.81031 5.31435 2.83013 5.35386 2.83013 5.37362C2.83013 5.39337 2.93914 5.52837 3.07457 5.67654C3.21001 5.82471 3.35866 6.02227 3.40491 6.11447C3.52382 6.33837 3.57007 6.67093 3.54695 7.14507C3.53374 7.51055 3.52382 7.55994 3.42142 7.77067C3.35866 7.89579 3.23313 8.08018 3.14064 8.18225C2.72112 8.63664 2.53283 9.05152 2.53283 9.52237C2.53283 9.96029 2.71121 10.3719 3.06797 10.7736C3.45446 11.2049 3.55686 11.4947 3.55686 12.1664C3.55356 12.7459 3.45776 12.9961 3.07788 13.4143C2.69799 13.8325 2.53283 14.221 2.53283 14.6853C2.53613 15.1001 2.71451 15.5216 3.03824 15.8739C3.35205 16.2163 3.71542 16.4139 4.13824 16.4765C4.24395 16.4929 4.33975 16.5061 4.34966 16.5094C4.35957 16.5094 4.46197 16.4962 4.58089 16.4798ZM14.8906 15.11C15.1152 14.9124 15.1978 14.6951 15.1218 14.4976C15.0756 14.3757 14.8509 14.1749 14.7188 14.142C14.4017 14.0564 13.9855 14.4712 14.0879 14.7676C14.1407 14.9157 14.253 15.0606 14.372 15.1363C14.5041 15.2187 14.7849 15.2055 14.8906 15.11ZM9.68783 9.99651C9.81336 9.92078 9.95871 9.73639 9.99504 9.60798C10.0578 9.39725 9.8497 9.08444 9.59865 9.00871C9.42687 8.95603 9.24519 9.012 9.10645 9.15359C8.89504 9.3709 8.88182 9.63761 9.06681 9.84175C9.27162 10.0591 9.49294 10.115 9.68783 9.99651ZM14.8212 9.99651C14.884 9.96358 14.9864 9.87139 15.0491 9.79236C15.1449 9.66724 15.1581 9.63102 15.1449 9.49603C15.1119 9.17664 14.7717 8.91652 14.4942 8.99883C14.329 9.05152 14.144 9.2392 14.0978 9.41042C14.0647 9.52566 14.068 9.56846 14.1077 9.66395C14.1771 9.81871 14.253 9.90761 14.3918 9.98992C14.5338 10.0755 14.6726 10.0788 14.8212 9.99651Z" fill="black"/>
<path d="M4.59793 16.9729C3.90126 16.8718 3.32618 16.3698 3.06 15.6233C2.97784 15.3919 2.98113 14.8116 3.06328 14.5476C3.16187 14.2379 3.29003 14.0227 3.54307 13.7456C3.90126 13.3545 4.01628 13.0741 4.01956 12.608C4.01956 12.0505 3.90126 11.7343 3.53321 11.3268C3.14872 10.8965 3.00085 10.5282 3.00085 9.99029C3.00085 9.41655 3.1553 9.04819 3.6055 8.56573C3.86511 8.28538 3.98342 8.00829 4.00971 7.64319C4.03271 7.27157 3.98013 6.92928 3.8684 6.71413C3.82239 6.62285 3.67451 6.42726 3.53978 6.28057C3.40505 6.13388 3.2966 6.00022 3.2966 5.98066C3.2966 5.9611 3.27689 5.92199 3.2506 5.89591C3.22759 5.86657 3.17501 5.75573 3.13229 5.64816C3.09286 5.54058 3.04685 5.42649 3.03042 5.39715C3.01399 5.36455 3.00085 5.1657 3.00085 4.95381C3.00085 4.64086 3.01399 4.52677 3.07643 4.34095C3.30975 3.63031 3.91769 3.12829 4.66037 3.02723C5.2716 2.94248 5.75796 3.10547 6.28703 3.57815C6.58608 3.8422 6.64194 3.87805 6.9377 3.96607C7.13815 4.02801 7.23345 4.03779 7.54564 4.02801C7.8874 4.01823 7.93013 4.00845 8.16016 3.90087C8.30475 3.83242 8.48878 3.7118 8.60379 3.60423C8.99485 3.2489 9.32676 3.08591 9.79997 3.02397C10.1023 2.98485 10.4309 3.01745 10.6478 3.10873C10.7168 3.13807 10.8088 3.18044 10.8548 3.2C10.9929 3.25868 11.2163 3.41515 11.4299 3.60749C11.6139 3.77374 11.7092 3.82916 12.0181 3.97259C12.0839 4.00519 12.2515 4.01823 12.5604 4.01823C12.9941 4.01823 13.0139 4.01497 13.2275 3.91391C13.3622 3.85198 13.5594 3.71506 13.727 3.56837C14.2363 3.11525 14.818 2.92944 15.4128 3.02397C15.5508 3.04353 15.6888 3.07613 15.7151 3.08917C15.7447 3.10547 15.8564 3.15763 15.9649 3.20978C16.1916 3.31736 16.5564 3.64334 16.7075 3.87479C16.7634 3.96281 16.8521 4.13884 16.9047 4.26598C16.9934 4.48113 17 4.53003 17 4.93099C17 5.18852 16.9869 5.37433 16.9671 5.38737C16.9507 5.39715 16.9343 5.43953 16.9343 5.47538C16.9343 5.61882 16.724 5.97088 16.4939 6.20885C16.2409 6.47616 16.001 6.63263 15.6757 6.74021C15.4818 6.80541 15.4128 6.81193 15.0381 6.79563C14.4762 6.77281 14.164 6.65545 13.8321 6.35229C13.5758 6.11758 13.4082 5.99696 13.1979 5.89917C13.0204 5.81767 12.981 5.81115 12.5801 5.81441C11.9886 5.81767 11.7947 5.89265 11.374 6.27079C11.1374 6.48268 10.8647 6.64893 10.5952 6.74347C10.4046 6.80541 10.3389 6.81193 9.93799 6.79563C9.53378 6.78259 9.47135 6.76955 9.27746 6.68479C9.00799 6.56092 8.88312 6.47616 8.59722 6.22189C8.20288 5.87309 8.032 5.81115 7.47006 5.81115C6.99685 5.81441 6.86211 5.85353 6.50721 6.07846C6.05371 6.37511 5.7941 6.8706 5.7941 7.44434C5.7941 7.93658 5.89598 8.18107 6.31004 8.67331C7.01985 9.51761 7.01328 10.5184 6.2936 11.3138C5.91569 11.7343 5.79739 12.0179 5.7941 12.5102C5.7941 13.0089 5.88612 13.2599 6.21145 13.6315C6.43491 13.8923 6.67809 14.0521 6.92784 14.1173C7.14144 14.1694 7.76253 14.1825 7.93013 14.1368C8.16673 14.0716 8.38362 13.951 8.5775 13.775C8.78782 13.5859 9.14273 13.3545 9.31032 13.2958C9.51407 13.2241 9.84926 13.1621 10.0399 13.1621C10.329 13.1621 10.5492 13.2175 10.8778 13.3773C11.4365 13.6478 11.821 14.1629 11.9064 14.7562C11.9524 15.0691 11.9294 15.506 11.8571 15.6527C11.8308 15.7048 11.8078 15.7668 11.8078 15.7928C11.8078 15.8906 11.5351 16.2916 11.3543 16.4611C11.1342 16.6697 10.9403 16.7871 10.6347 16.9012C10.4276 16.9762 10.3816 16.9794 9.95113 16.9664C9.54036 16.9533 9.47135 16.9436 9.29389 16.8653C9.03428 16.748 8.88641 16.6469 8.57093 16.3698C8.37376 16.2003 8.24231 16.1156 8.07143 16.0504C7.84797 15.9623 7.8184 15.9591 7.40105 15.9721C7.00671 15.9852 6.94098 15.9949 6.77996 16.0732C6.67809 16.1188 6.48749 16.2557 6.35604 16.3763C5.75796 16.911 5.28146 17.0707 4.59793 16.9729Z" fill="#FBE700"/>
<path d="M14.3651 14.9795C14.1723 14.9342 14.0233 14.7581 14.0027 14.5517C13.9564 14.0861 14.5142 13.8193 14.8561 14.1415C14.9794 14.2598 15 14.3126 15 14.5114C15 14.6448 14.9897 14.6851 14.9255 14.7681C14.8252 14.904 14.7712 14.9443 14.653 14.977C14.5373 15.0072 14.4859 15.0072 14.3651 14.9795Z" fill="#FBE700"/>
<path d="M9.2572 9.95067C9.11703 9.86577 9.04058 9.76339 9.01254 9.62106C8.95648 9.35388 9.09155 9.12165 9.35404 9.04175C9.50694 8.9943 9.59104 8.98681 9.61398 9.02177C9.62162 9.03425 9.65985 9.05173 9.70318 9.06172C9.80257 9.0842 9.94783 9.2465 9.98351 9.37635C10.0421 9.5886 9.94018 9.83331 9.7465 9.94817C9.63437 10.0156 9.36423 10.0181 9.2572 9.95067Z" fill="#FBE700"/>
<path d="M14.2675 9.94227C14.1595 9.877 14.0992 9.8017 14.0339 9.6536C13.9887 9.55068 13.9887 9.54315 14.0339 9.39756C14.0917 9.20679 14.2097 9.08379 14.383 9.03359C14.5438 8.9859 14.5488 8.9859 14.7045 9.05367C14.7874 9.09132 14.8653 9.14906 14.913 9.21181C14.9783 9.29716 14.9883 9.33481 14.9959 9.49797C15.0059 9.68121 15.0034 9.69376 14.9205 9.79668C14.8075 9.94729 14.6995 10 14.5111 10C14.3981 10 14.3378 9.98494 14.2675 9.94227Z" fill="#FBE700"/>
</svg>
