<svg width="20" height="20" viewBox="0 0 20 20" fill="none" xmlns="http://www.w3.org/2000/svg">
<path d="M9.31947 17.9383C7.5458 17.7096 6.3034 17.1508 5.21159 16.0923C4.65941 15.5588 4.30384 15.0592 3.90644 14.2547C3.49649 13.4291 3.20785 12.3282 3.06144 11.0622C2.99032 10.4441 2.97777 8.9156 3.04052 8.31861C3.55505 3.48337 6.80538 0.714324 11.6118 1.02341C13.0885 1.11655 14.469 1.45528 15.6904 2.0184L16 2.16236L15.841 2.58152C15.406 3.69507 14.8203 5.22355 14.745 5.42254C14.699 5.5411 14.6488 5.64271 14.6279 5.64271C14.607 5.64271 14.2933 5.51993 13.9293 5.37174C12.6702 4.85942 12.118 4.7197 11.1559 4.68159C10.2147 4.64349 9.60811 4.82132 9.01828 5.31669C8.51211 5.7401 8.0687 6.46411 7.83862 7.25164C7.40357 8.7039 7.45795 11.0453 7.9432 12.2562C8.55395 13.7678 9.67922 14.441 11.4487 14.3478C12.3648 14.3013 12.8835 14.1912 14.0297 13.7974C14.4606 13.645 14.9082 13.4841 15.017 13.4375C15.1299 13.3867 15.2387 13.3486 15.2596 13.3486C15.2847 13.3486 15.293 14.0896 15.2889 15.22L15.2763 17.0915L15.1717 17.1465C14.4857 17.4895 13.419 17.7689 12.2017 17.9213C11.432 18.0187 10.0055 18.0272 9.31947 17.9383Z" fill="url(#paint0_linear_2001_3318)"/>
<defs>
<linearGradient id="paint0_linear_2001_3318" x1="3" y1="1" x2="1303" y2="1" gradientUnits="userSpaceOnUse">
<stop stop-color="#B7081C"/>
<stop offset="1" stop-color="#F7102B"/>
</linearGradient>
</defs>
</svg>
