<svg width="20" height="19" viewBox="0 0 20 19" fill="none" xmlns="http://www.w3.org/2000/svg">
<path d="M5.89229 8.71316C7.15395 7.45173 9.35434 7.45173 10.616 8.71316L11.4033 9.5003L12.9779 7.92602L12.1906 7.13887C11.1405 6.08787 9.74186 5.50781 8.25414 5.50781C6.76643 5.50781 5.3678 6.08787 4.31772 7.13887L1.95475 9.5003C0.913327 10.5457 0.328613 11.9611 0.328613 13.4366C0.328613 14.912 0.913327 16.3274 1.95475 17.3728C2.47119 17.8902 3.08484 18.3003 3.7604 18.5796C4.43597 18.859 5.16011 19.002 5.89117 19.0005C6.62242 19.0022 7.34678 18.8592 8.02254 18.5799C8.69831 18.3005 9.31214 17.8903 9.82871 17.3728L10.616 16.5857L9.04143 15.0114L8.25414 15.7985C7.62662 16.4231 6.7772 16.7738 5.89173 16.7738C5.00626 16.7738 4.15684 16.4231 3.52932 15.7985C2.90406 15.1714 2.55296 14.322 2.55296 13.4366C2.55296 12.5511 2.90406 11.7017 3.52932 11.0746L5.89229 8.71316Z" fill="black"/>
<path d="M9.82834 1.62767L9.04106 2.41481L10.6156 3.98909L11.4029 3.20195C12.0304 2.57735 12.8799 2.22669 13.7653 2.22669C14.6508 2.22669 15.5002 2.57735 16.1277 3.20195C16.753 3.82907 17.1041 4.67844 17.1041 5.56393C17.1041 6.44941 16.753 7.29879 16.1277 7.92591L13.7648 10.2873C12.5031 11.5488 10.3027 11.5488 9.04106 10.2873L8.25377 9.50019L6.6792 11.0745L7.46648 11.8616C8.51657 12.9126 9.9152 13.4927 11.4029 13.4927C12.8906 13.4927 14.2893 12.9126 15.3393 11.8616L17.7023 9.50019C18.7437 8.45478 19.3284 7.03941 19.3284 5.56393C19.3284 4.08845 18.7437 2.67308 17.7023 1.62767C16.6573 0.585355 15.2414 0 13.7653 0C12.2892 0 10.8734 0.585355 9.82834 1.62767Z" fill="black"/>
</svg>
