<svg width="18" height="18" viewBox="0 0 18 18" fill="none" xmlns="http://www.w3.org/2000/svg">
<g clip-path="url(#clip0_2001_2240)">
<path d="M16.3894 6.29092L17.4477 5.90245C17.3092 5.52603 17.1458 5.1593 16.9583 4.80469L15.9609 5.3313C16.1249 5.64133 16.268 5.9619 16.3894 6.29092Z" fill="#8F8F8F"/>
<path d="M16.3275 3.78269C16.0945 3.45659 15.8402 3.14617 15.5663 2.85352L14.7432 3.6237C14.983 3.88009 15.2056 4.1521 15.4096 4.43785L16.3275 3.78269Z" fill="#8F8F8F"/>
<path d="M17.786 7.05251V7.05533L16.6849 7.29946C17.6324 11.5566 14.9495 15.7759 10.6924 16.7235C6.43527 17.671 2.21598 14.9881 1.26841 10.7309C0.320798 6.47381 3.00374 2.25456 7.26088 1.30695C9.62509 0.780697 12.1001 1.36852 13.9751 2.90162L14.6895 2.02882C10.8384 -1.11339 5.1691 -0.538715 2.02689 3.31243C-1.11533 7.16358 -0.540687 12.8328 3.31043 15.9751C7.16154 19.1173 12.8308 18.5426 15.973 14.6915C17.7148 12.5569 18.3828 9.74211 17.786 7.05251Z" fill="#8F8F8F"/>
<path d="M5.0459 9.39874L8.97855 15.0792L12.9112 9.39874L8.97855 2.84375L5.0459 9.39874ZM8.97855 13.098L7.32374 10.7057L8.97855 11.4437L10.6334 10.7057L8.97855 13.098ZM8.97855 10.2095L6.52762 9.12021L8.97855 5.03589L11.4295 9.12021L8.97855 10.2095Z" fill="#8F8F8F"/>
</g>
<defs>
<clipPath id="clip0_2001_2240">
<rect width="18" height="18" fill="white"/>
</clipPath>
</defs>
</svg>
