<svg width="19" height="21" viewBox="0 0 19 21" fill="none" xmlns="http://www.w3.org/2000/svg">
<path d="M12.3719 4.50794C12.4767 4.41947 12.5598 4.31438 12.6165 4.19868C12.6732 4.08298 12.7024 3.95895 12.7024 3.83369C12.7024 3.70842 12.6732 3.58439 12.6165 3.46869C12.5598 3.35299 12.4767 3.2479 12.3719 3.15944L9.56018 0.77861C9.34899 0.600041 9.06267 0.499822 8.76421 0.5C8.46576 0.500179 8.17961 0.60074 7.96872 0.779563C7.75782 0.958385 7.63946 1.20082 7.63968 1.45353C7.63989 1.70625 7.75865 1.94854 7.96984 2.12711L8.8741 2.89088C7.21235 2.96168 5.60632 3.42125 4.23451 4.21852C2.8627 5.01578 1.77884 6.11952 1.10338 7.40706C0.427929 8.6946 0.187337 10.1155 0.408347 11.5119C0.629356 12.9082 1.30331 14.2254 2.35531 15.3169C2.54574 15.508 2.8173 15.628 3.11135 15.651C3.4054 15.6741 3.69835 15.5982 3.92694 15.4399C4.15553 15.2817 4.30143 15.0536 4.33312 14.805C4.36482 14.5564 4.27978 14.3072 4.09635 14.1112C3.31512 13.3006 2.81176 12.3238 2.64117 11.2875C2.47058 10.2513 2.63931 9.1952 3.12896 8.23455C3.61861 7.27389 4.41037 6.44551 5.41791 5.83975C6.42545 5.23399 7.61008 4.87411 8.84261 4.79935L7.96759 5.54217C7.86017 5.63002 7.77449 5.7351 7.71554 5.85129C7.6566 5.96748 7.62557 6.09244 7.62427 6.21889C7.62298 6.34534 7.65143 6.47074 7.70798 6.58778C7.76454 6.70482 7.84805 6.81115 7.95365 6.90057C8.05925 6.98998 8.18483 7.0607 8.32305 7.10858C8.46127 7.15647 8.60937 7.18056 8.75871 7.17946C8.90805 7.17836 9.05563 7.15209 9.19285 7.10218C9.33007 7.05227 9.45418 6.97972 9.55793 6.88876L12.3719 4.50794ZM14.2637 5.22028C14.1566 5.30644 14.0706 5.40961 14.0106 5.52392C13.9506 5.63823 13.9178 5.76143 13.914 5.88648C13.9102 6.01152 13.9356 6.13598 13.9887 6.25272C14.0417 6.36946 14.1214 6.47622 14.2232 6.56687C15.1037 7.35205 15.7026 8.33288 15.9501 9.39512C16.1976 10.4574 16.0837 11.5573 15.6214 12.5668C15.1592 13.5763 14.3677 14.4539 13.3392 15.0972C12.3107 15.7405 11.0875 16.1232 9.81211 16.2006L10.6871 15.4578C10.7946 15.37 10.8802 15.2649 10.9392 15.1487C10.9981 15.0325 11.0292 14.9076 11.0304 14.7811C11.0317 14.6547 11.0033 14.5293 10.9467 14.4122C10.8902 14.2952 10.8067 14.1888 10.7011 14.0994C10.5955 14.01 10.4699 13.9393 10.3317 13.8914C10.1934 13.8435 10.0453 13.8194 9.89601 13.8205C9.74667 13.8216 9.59909 13.8479 9.46187 13.8978C9.32465 13.9477 9.20055 14.0203 9.0968 14.1112L6.28503 16.4921C6.18029 16.5805 6.09719 16.6856 6.04049 16.8013C5.98379 16.917 5.95461 17.041 5.95461 17.1663C5.95461 17.2916 5.98379 17.4156 6.04049 17.5313C6.09719 17.647 6.18029 17.7521 6.28503 17.8406L9.0968 20.2214C9.30799 20.4 9.5943 20.5002 9.89276 20.5C10.1912 20.4998 10.4774 20.3993 10.6883 20.2204C10.8991 20.0416 11.0175 19.7992 11.0173 19.5465C11.0171 19.2938 10.8983 19.0515 10.6871 18.8729L9.78287 18.1091C11.5019 18.0359 13.1601 17.5468 14.5607 16.6997C15.9613 15.8526 17.0456 14.6831 17.6849 13.3299C18.3242 11.9768 18.4918 10.4968 18.1676 9.06544C17.8435 7.6341 17.0414 6.31151 15.8563 5.25456C15.7545 5.16359 15.6325 5.09052 15.4973 5.03955C15.3621 4.98857 15.2163 4.9607 15.0684 4.95751C14.9204 4.95433 14.7732 4.9759 14.6351 5.02099C14.497 5.06608 14.3708 5.1338 14.2637 5.22028Z" fill="black"/>
</svg>
