<svg width="15" height="16" viewBox="0 0 15 16" fill="none" xmlns="http://www.w3.org/2000/svg">
<path d="M14.918 15.3506L10.5477 10.9743C11.6624 9.89788 12.353 8.41391 12.353 6.77729C12.353 3.49783 9.58241 0.830078 6.17651 0.830078C2.7706 0.830078 0 3.49783 0 6.77729C0 10.0568 2.7706 12.7245 6.17651 12.7245C7.67152 12.7245 9.04358 12.2099 10.113 11.3561L14.4939 15.7431C14.5516 15.8012 14.6286 15.8301 14.706 15.8301C14.7795 15.8301 14.8527 15.8037 14.9098 15.7511C15.0269 15.6426 15.0304 15.4633 14.918 15.3506ZM6.17651 12.1581C3.09502 12.1581 0.588239 9.74438 0.588239 6.77729C0.588239 3.8102 3.09502 1.39648 6.17651 1.39648C9.258 1.39648 11.7648 3.8102 11.7648 6.77729C11.7648 9.74438 9.2577 12.1581 6.17651 12.1581Z" fill="#171851"/>
</svg>
