<svg width="34" height="34" viewBox="0 0 34 34" fill="none" xmlns="http://www.w3.org/2000/svg">
<path d="M32.5613 14.4969L30.375 14.4898C30.0365 12.6918 29.3313 10.9502 28.2663 9.37785L29.8249 7.82663C30.3891 7.2696 30.3891 6.36002 29.832 5.79593L28.2663 4.22356C27.7092 3.65948 26.7994 3.65948 26.2352 4.21651L24.6766 5.76773C23.111 4.69598 21.3761 3.98382 19.5777 3.63127L19.5847 1.44546C19.5847 0.655744 18.943 0.00705102 18.1531 0.00705102L15.9315 0C15.1417 0 14.4928 0.641642 14.4928 1.43136L14.4858 3.61012C12.6804 3.94152 10.9313 4.63957 9.35159 5.70427L7.82825 4.1742C7.27111 3.61012 6.36134 3.61012 5.79714 4.16715L4.22443 5.73248C3.66024 6.28951 3.66024 7.19909 4.21738 7.76317L5.72661 9.27914C4.64053 10.8515 3.91413 12.6072 3.56855 14.4193L1.44576 14.4123C0.655881 14.4123 0.00705248 15.0539 0.00705248 15.8436L0 18.0647C0 18.8544 0.641776 19.5031 1.43165 19.5031L3.5474 19.5102C3.87886 21.3293 4.59116 23.0991 5.66314 24.6856L4.16802 26.1663C3.60382 26.7234 3.60382 27.6329 4.16096 28.197L5.72661 29.7694C6.28376 30.3335 7.19353 30.3335 7.75773 29.7764L9.25285 28.2957C10.8397 29.3816 12.5957 30.1008 14.4153 30.4392L14.4082 32.5545C14.4082 33.3443 15.05 33.9929 15.8399 33.9929L18.0614 34C18.8513 34 19.5001 33.3584 19.5001 32.5686L19.5072 30.4463C21.3196 30.1078 23.0757 29.3957 24.6555 28.3098L26.1647 29.8258C26.7218 30.3899 27.6316 30.3899 28.1958 29.8328L29.7685 28.2675C30.3327 27.7105 30.3327 26.8009 29.7756 26.2368L28.2522 24.7068C29.3242 23.1344 30.0295 21.3857 30.375 19.5807L32.5542 19.5877C33.3441 19.5877 33.9929 18.9461 33.9929 18.1564L34 15.9353C34 15.1456 33.3582 14.4969 32.5613 14.4969ZM16.9965 26.2721C11.8764 26.2721 7.72246 22.119 7.72246 17C7.72246 11.881 11.8764 7.72791 16.9965 7.72791C22.1166 7.72791 26.2705 11.881 26.2705 17C26.2705 22.119 22.1166 26.2721 16.9965 26.2721ZM16.9965 10.7175C13.5267 10.7175 10.7127 13.5309 10.7127 17C10.7127 20.4691 13.5267 23.2825 16.9965 23.2825C20.4663 23.2825 23.2802 20.4691 23.2802 17C23.2802 13.5309 20.4663 10.7175 16.9965 10.7175ZM16.9965 14.9199C15.8469 14.9199 14.916 15.8507 14.916 17C14.916 17.5006 14.514 17.9025 14.0133 17.9025C13.5125 17.9025 13.1106 17.5006 13.1106 17C13.1106 14.8565 14.8525 13.1149 16.9965 13.1149C17.4972 13.1149 17.8992 13.5168 17.8992 14.0174C17.8992 14.518 17.4972 14.9199 16.9965 14.9199Z" fill="#8F8F8F"/>
</svg>
