<svg width="34" height="33" viewBox="0 0 34 33" fill="none" xmlns="http://www.w3.org/2000/svg">
<path fill-rule="evenodd" clip-rule="evenodd" d="M20.6432 4.6695C21.3912 4.9005 22.1062 5.1975 22.7882 5.5605L25.8126 3.7455C26.128 3.55635 26.4975 3.47797 26.8625 3.52281C27.2275 3.56765 27.5671 3.73314 27.8273 3.993L29.507 5.6727C29.7669 5.93291 29.9323 6.27247 29.9772 6.63747C30.022 7.00246 29.9437 7.37198 29.7545 7.68735L27.9395 10.7118C28.3025 11.3938 28.5995 12.1088 28.8305 12.8568L32.2509 13.7132C32.6078 13.8025 32.9245 14.0086 33.1508 14.2986C33.3771 14.5885 33.5 14.9458 33.5 15.3137V17.6863C33.5 18.0542 33.3771 18.4115 33.1508 18.7014C32.9245 18.9914 32.6078 19.1975 32.2509 19.2868L28.8305 20.1432C28.5995 20.8912 28.3025 21.6062 27.9395 22.2882L29.7545 25.3126C29.9437 25.628 30.022 25.9975 29.9772 26.3625C29.9323 26.7275 29.7669 27.0671 29.507 27.3273L27.8273 29.007C27.5671 29.2669 27.2275 29.4323 26.8625 29.4772C26.4975 29.522 26.128 29.4437 25.8126 29.2545L22.7882 27.4395C22.1062 27.8025 21.3912 28.0995 20.6432 28.3305L19.7868 31.7509C19.6975 32.1078 19.4914 32.4245 19.2014 32.6508C18.9115 32.8771 18.5542 33 18.1863 33H15.8137C15.4458 33 15.0885 32.8771 14.7986 32.6508C14.5086 32.4245 14.3025 32.1078 14.2132 31.7509L13.3568 28.3305C12.6154 28.1014 11.8973 27.8031 11.2118 27.4395L8.18735 29.2545C7.87198 29.4437 7.50246 29.522 7.13747 29.4772C6.77247 29.4323 6.43291 29.2669 6.1727 29.007L4.493 27.3273C4.23314 27.0671 4.06765 26.7275 4.02281 26.3625C3.97797 25.9975 4.05635 25.628 4.2455 25.3126L6.0605 22.2882C5.69691 21.6027 5.39859 20.8846 5.1695 20.1432L1.74905 19.2868C1.39252 19.1975 1.07601 18.9917 0.849738 18.7021C0.623465 18.4124 0.500377 18.0555 0.5 17.688V15.3153C0.50001 14.9475 0.622929 14.5902 0.849231 14.3002C1.07553 14.0102 1.39224 13.8042 1.74905 13.7148L5.1695 12.8584C5.4005 12.1104 5.6975 11.3954 6.0605 10.7134L4.2455 7.689C4.05635 7.37363 3.97797 7.00411 4.02281 6.63911C4.06765 6.27412 4.23314 5.93456 4.493 5.67435L6.1727 3.993C6.43291 3.73314 6.77247 3.56765 7.13747 3.52281C7.50246 3.47797 7.87198 3.55635 8.18735 3.7455L11.2118 5.5605C11.8938 5.1975 12.6088 4.9005 13.3568 4.6695L14.2132 1.24905C14.3025 0.892517 14.5083 0.576012 14.7979 0.349738C15.0876 0.123465 15.4445 0.00037726 15.812 0H18.1847C18.5525 9.66972e-06 18.9098 0.122929 19.1998 0.349231C19.4898 0.575534 19.6958 0.892243 19.7852 1.24905L20.6432 4.6695ZM17 23.1C18.7504 23.1 20.4292 22.4046 21.6669 21.1669C22.9046 19.9292 23.6 18.2504 23.6 16.5C23.6 14.7496 22.9046 13.0708 21.6669 11.8331C20.4292 10.5954 18.7504 9.9 17 9.9C15.2496 9.9 13.5708 10.5954 12.3331 11.8331C11.0954 13.0708 10.4 14.7496 10.4 16.5C10.4 18.2504 11.0954 19.9292 12.3331 21.1669C13.5708 22.4046 15.2496 23.1 17 23.1Z" fill="#171851"/>
</svg>
