<svg width="34" height="34" viewBox="0 0 34 34" fill="none" xmlns="http://www.w3.org/2000/svg">
<path d="M21.5591 14.4576H21.1613C22.4763 13.5584 23.4648 12.2705 23.9829 10.7813C24.5009 9.29221 24.5215 7.67958 24.0417 6.17816C23.5618 4.67674 22.6066 3.36489 21.3149 2.43355C20.0233 1.50222 18.4626 1 16.8602 1C15.2578 1 13.6972 1.50222 12.4055 2.43355C11.1139 3.36489 10.1586 4.67674 9.67874 6.17816C9.19888 7.67958 9.21949 9.29221 9.73755 10.7813C10.2556 12.2705 11.2441 13.5584 12.5591 14.4576H12.4409C11.2011 14.4576 9.97342 14.6974 8.828 15.1633C7.68258 15.6292 6.64183 16.3121 5.76516 17.1731C4.8885 18.034 4.19309 19.056 3.71864 20.1808C3.2442 21.3057 3 22.5113 3 23.7288C3 24.9463 3.2442 26.1519 3.71864 27.2767C4.19309 28.4016 4.8885 29.4236 5.76516 30.2845C6.64183 31.1454 7.68258 31.8283 8.828 32.2943C9.97342 32.7602 11.2011 33 12.4409 33H21.5591C24.063 33 26.4643 32.0232 28.2348 30.2845C30.0053 28.5458 31 26.1877 31 23.7288C31 21.2699 30.0053 18.9117 28.2348 17.1731C26.4643 15.4344 24.063 14.4576 21.5591 14.4576ZM11.5161 8.43868C11.5161 7.39445 11.8314 6.37367 12.4222 5.50542C13.013 4.63717 13.8526 3.96046 14.835 3.56084C15.8174 3.16123 16.8984 3.05668 17.9413 3.2604C18.9843 3.46412 19.9422 3.96696 20.6941 4.70535C21.446 5.44373 21.9581 6.38449 22.1655 7.40866C22.373 8.43282 22.2665 9.4944 21.8596 10.4591C21.4526 11.4239 20.7635 12.2485 19.8794 12.8286C18.9953 13.4088 17.9558 13.7184 16.8925 13.7184C15.4666 13.7184 14.0991 13.1622 13.0908 12.172C12.0826 11.1819 11.5161 9.83895 11.5161 8.43868ZM21.5591 30.9092H12.4409C10.5073 30.9092 8.65302 30.1549 7.28582 28.8123C5.91862 27.4697 5.15054 25.6487 5.15054 23.7499C5.15054 21.8511 5.91862 20.0301 7.28582 18.6875C8.65302 17.3449 10.5073 16.5906 12.4409 16.5906H21.5591C23.4927 16.5906 25.347 17.3449 26.7142 18.6875C28.0814 20.0301 28.8495 21.8511 28.8495 23.7499C28.8495 25.6487 28.0814 27.4697 26.7142 28.8123C25.347 30.1549 23.4927 30.9092 21.5591 30.9092Z" fill="#8F8F8F"/>
</svg>
