<svg width="21" height="19" viewBox="0 0 21 19" fill="none" xmlns="http://www.w3.org/2000/svg">
<path fill-rule="evenodd" clip-rule="evenodd" d="M4.7097 11.3784C4.75295 11.3917 4.79705 11.402 4.8417 11.4094C5.12462 12.076 5.40596 12.7434 5.6857 13.4114C6.1887 14.6134 6.6957 15.8514 6.8067 16.2074C6.9457 16.6454 7.0917 16.9434 7.2517 17.1474C7.3347 17.2514 7.4297 17.3434 7.5417 17.4134C7.60051 17.449 7.66284 17.4785 7.7277 17.5014C8.0477 17.6214 8.3397 17.5714 8.5227 17.5104C8.63015 17.4739 8.73235 17.4234 8.8267 17.3604L8.8317 17.3584L11.6577 15.5964L14.9227 18.0984C14.9707 18.1351 15.0227 18.1661 15.0787 18.1914C15.4707 18.3614 15.8507 18.4214 16.2087 18.3734C16.5647 18.3234 16.8477 18.1744 17.0587 18.0054C17.3008 17.8099 17.4939 17.5606 17.6227 17.2774L17.6317 17.2554L17.6347 17.2474L17.6367 17.2434V17.2414L17.6377 17.2404C17.6541 17.197 17.6675 17.1526 17.6777 17.1074L20.6577 2.08238C20.6659 2.03413 20.6706 1.98533 20.6717 1.93638C20.6717 1.49638 20.5057 1.07738 20.1167 0.824385C19.7827 0.607385 19.4117 0.597385 19.1767 0.615385C18.9247 0.635385 18.6907 0.697384 18.5337 0.747384C18.446 0.775712 18.3593 0.807065 18.2737 0.841385L18.2627 0.846384L1.5487 7.40238L1.5467 7.40338C1.49002 7.42386 1.4343 7.44688 1.3797 7.47238C1.24711 7.53187 1.11997 7.60281 0.999701 7.68438C0.772701 7.83939 0.249701 8.26538 0.338701 8.96938C0.408701 9.52938 0.792701 9.87438 1.0277 10.0404C1.1557 10.1314 1.2777 10.1964 1.3677 10.2394C1.4077 10.2594 1.4937 10.2934 1.5307 10.3094L1.5407 10.3124L4.7097 11.3784ZM18.8477 2.22638H18.8457L18.8197 2.23738L2.0857 8.80238L2.0597 8.81238L2.0497 8.81538C2.01906 8.82723 1.98903 8.84058 1.9597 8.85538C1.98766 8.87109 2.01636 8.88544 2.0457 8.89838L5.1877 9.95638C5.24318 9.97693 5.29672 10.0024 5.3477 10.0324L15.7247 3.95738L15.7347 3.95238C15.7752 3.92826 15.8166 3.90558 15.8587 3.88438C15.9307 3.84738 16.0457 3.79338 16.1757 3.75338C16.2657 3.72538 16.5327 3.64638 16.8207 3.73938C16.9737 3.78711 17.1101 3.87713 17.2141 3.99904C17.3182 4.12095 17.3856 4.26979 17.4087 4.42838C17.4459 4.56714 17.447 4.71312 17.4117 4.85238C17.3417 5.12738 17.1497 5.34138 16.9747 5.50538C16.8247 5.64538 14.8787 7.52138 12.9597 9.37338L10.3467 11.8934L9.8817 12.3434L15.7537 16.8454C15.833 16.8785 15.919 16.8922 16.0047 16.8854C16.0478 16.8795 16.0884 16.8614 16.1217 16.8334C16.1622 16.7991 16.197 16.7586 16.2247 16.7134L16.2267 16.7124L19.1167 2.13938C19.0258 2.16177 18.9366 2.1905 18.8497 2.22538L18.8477 2.22638ZM10.3867 14.6204L9.2147 13.7224L8.9307 15.5274L10.3867 14.6204ZM8.1397 11.9404L9.3047 10.8154L11.9177 8.29339L12.8907 7.35538L6.3707 11.1724L6.4057 11.2544C6.81691 12.2258 7.22358 13.1992 7.6257 14.1744L7.9087 12.3744C7.93454 12.2075 8.01593 12.0552 8.1397 11.9404Z" fill="black"/>
</svg>
