<svg width="17" height="16" viewBox="0 0 17 16" fill="none" xmlns="http://www.w3.org/2000/svg">
<path d="M7.58593 1.20633C7.78109 0.201501 9.21891 0.201503 9.41407 1.20633L10.2505 5.51295C10.3229 5.88567 10.6143 6.1771 10.987 6.24949L15.2937 7.08593C16.2985 7.28109 16.2985 8.71891 15.2937 8.91407L10.987 9.75051C10.6143 9.8229 10.3229 10.1143 10.2505 10.487L9.41407 14.7937C9.21891 15.7985 7.78109 15.7985 7.58593 14.7937L6.74949 10.487C6.6771 10.1143 6.38566 9.8229 6.01295 9.75051L1.70633 8.91407C0.701501 8.71891 0.701503 7.28109 1.70633 7.08593L6.01295 6.24949C6.38567 6.1771 6.6771 5.88566 6.74949 5.51295L7.58593 1.20633Z" fill="black"/>
</svg>
