<svg width="21" height="20" viewBox="0 0 21 20" fill="none" xmlns="http://www.w3.org/2000/svg">
<g clip-path="url(#clip0_2001_100)">
<path d="M18.0086 2.92895C16.1198 1.04016 13.6086 0 10.9375 0C8.26645 0 5.7552 1.04016 3.86645 2.92895C1.97766 4.8177 0.9375 7.32895 0.9375 10C0.9375 12.6711 1.97766 15.1823 3.86645 17.0711C5.7552 18.9598 8.26645 20 10.9375 20C13.6086 20 16.1198 18.9598 18.0086 17.0711C19.8973 15.1823 20.9375 12.6711 20.9375 10C20.9375 7.32895 19.8973 4.8177 18.0086 2.92895ZM10.9375 19.3684C5.77172 19.3684 1.56906 15.1658 1.56906 10C1.56906 4.83422 5.77172 0.631562 10.9375 0.631562C16.1033 0.631562 20.3059 4.83422 20.3059 10C20.3059 15.1658 16.1033 19.3684 10.9375 19.3684Z" fill="#8F8F8F"/>
<path d="M18.0086 2.92895C16.1198 1.04016 13.6086 0 10.9375 0C8.26645 0 5.7552 1.04016 3.86645 2.92895C1.97766 4.8177 0.9375 7.32895 0.9375 10C0.9375 12.6711 1.97766 15.1823 3.86645 17.0711C5.7552 18.9598 8.26645 20 10.9375 20C13.6086 20 16.1198 18.9598 18.0086 17.0711C19.8973 15.1823 20.9375 12.6711 20.9375 10C20.9375 7.32895 19.8973 4.8177 18.0086 2.92895ZM10.9375 19.3684C5.77172 19.3684 1.56906 15.1658 1.56906 10C1.56906 4.83422 5.77172 0.631562 10.9375 0.631562C16.1033 0.631562 20.3059 4.83422 20.3059 10C20.3059 15.1658 16.1033 19.3684 10.9375 19.3684Z" fill="#8F8F8F"/>
<path d="M16.6011 3.85259C16.5041 3.77954 16.3739 3.7686 16.2661 3.82438L4.05551 10.1402C3.94997 10.1947 3.88399 10.304 3.88477 10.4228C3.88555 10.5416 3.95301 10.65 4.05934 10.7031L7.25325 12.3V15.4643C7.25325 15.5471 7.28141 15.6291 7.33841 15.6892C7.40145 15.7557 7.48524 15.7891 7.56907 15.7891C7.62188 15.7891 7.67469 15.7759 7.72247 15.7493L11.3765 13.7193L14.1733 14.9179C14.2328 14.9434 14.2986 14.9539 14.3623 14.942C14.4934 14.9175 14.5908 14.8172 14.6156 14.6931L15.3232 11.155C15.3623 10.9595 15.2129 10.7772 15.0136 10.7772C14.863 10.7772 14.7334 10.8834 14.7039 11.031L14.0726 14.1875L11.4829 13.0777C11.3932 13.0392 11.2906 13.0445 11.2052 13.0919L7.88485 14.9365V12.1048C7.88485 11.9852 7.81727 11.8759 7.71028 11.8224L4.89719 10.4158L15.9726 4.68716L15.0115 9.49274C14.9724 9.68817 15.1218 9.87048 15.3211 9.87048C15.4716 9.87048 15.6013 9.76419 15.6308 9.61661L16.7208 4.16673C16.7446 4.04774 16.6981 3.9256 16.6011 3.85259Z" fill="#8F8F8F"/>
<path d="M14.5539 6.43647C14.4546 6.31084 14.277 6.27928 14.1405 6.36331L8.66688 9.73174C8.57348 9.7892 8.5166 9.89104 8.5166 10.0007V13.3691C8.51656 13.5156 8.61727 13.6428 8.75977 13.6765C8.78402 13.6822 8.80836 13.685 8.83242 13.685C8.94988 13.685 9.06043 13.6191 9.11477 13.5104L10.355 11.0299L14.5293 6.85557C14.6426 6.74229 14.6531 6.56217 14.5539 6.43647ZM9.87219 10.6195C9.84824 10.6435 9.82824 10.6712 9.81309 10.7015L9.14816 12.0314V10.1771L12.1808 8.31084L9.87219 10.6195Z" fill="#8F8F8F"/>
</g>
<defs>
<clipPath id="clip0_2001_100">
<rect width="20" height="20" fill="white" transform="translate(0.9375)"/>
</clipPath>
</defs>
</svg>
