<svg width="23" height="22" viewBox="0 0 23 22" fill="none" xmlns="http://www.w3.org/2000/svg">
<path d="M16.9545 19.0556V16.2222H14.2273V14.3333H16.9545V11.5H18.7727V14.3333H21.5V16.2222H18.7727V19.0556H16.9545ZM3.31818 20C2.81818 20 2.3903 19.8152 2.03455 19.4456C1.67879 19.076 1.50061 18.6312 1.5 18.1111V4.88889C1.5 4.36944 1.67818 3.92493 2.03455 3.55533C2.39091 3.18574 2.81879 3.00063 3.31818 3H16.0455C16.5455 3 16.9736 3.18511 17.33 3.55533C17.6864 3.92556 17.8642 4.37007 17.8636 4.88889V9.61111H16.0455V7.72222H3.31818V18.1111H15.1364V20H3.31818Z" fill="#171851"/>
</svg>
