<svg width="21" height="20" viewBox="0 0 21 20" fill="none" xmlns="http://www.w3.org/2000/svg">
<g clip-path="url(#clip0_2001_115)">
<path d="M18.0711 2.92895C16.1823 1.04016 13.6711 0 11 0C8.32895 0 5.8177 1.04016 3.92895 2.92895C2.04016 4.8177 1 7.32895 1 10C1 12.6711 2.04016 15.1823 3.92895 17.0711C5.8177 18.9598 8.32895 20 11 20C13.6711 20 16.1823 18.9598 18.0711 17.0711C19.9598 15.1823 21 12.6711 21 10C21 7.32895 19.9598 4.8177 18.0711 2.92895ZM11 19.3684C5.83422 19.3684 1.63156 15.1658 1.63156 10C1.63156 4.83422 5.83422 0.631562 11 0.631562C16.1658 0.631562 20.3684 4.83422 20.3684 10C20.3684 15.1658 16.1658 19.3684 11 19.3684Z" fill="#8F8F8F"/>
<path d="M13.1168 9.81046C13.0753 9.73393 12.9799 9.70527 12.9034 9.74668L9.81786 11.4136L9.81707 8.34432L10.8618 8.91283C10.938 8.95424 11.0336 8.92605 11.0753 8.84983C11.1171 8.77346 11.0887 8.67787 11.0123 8.63629L9.73471 7.94102C9.68589 7.91456 9.62699 7.9155 9.57896 7.94401C9.53124 7.97235 9.50195 8.02385 9.50195 8.07944L9.5029 11.6777C9.5029 11.7331 9.53219 11.7845 9.57975 11.813C9.60463 11.8278 9.6325 11.8352 9.66038 11.8352C9.68605 11.8352 9.71187 11.8289 9.73518 11.8163L13.053 10.0238C13.1297 9.98243 13.158 9.887 13.1168 9.81046Z" fill="#8F8F8F"/>
<path d="M17.0831 7.43329C17.0787 7.39486 16.9725 6.48809 16.5746 6.06778C16.105 5.55628 15.5873 5.50132 15.3092 5.47171L15.2406 5.46431C13.5346 5.33596 10.9585 5.31266 10.9239 5.3125C10.898 5.31266 8.32733 5.33596 6.6163 5.46494L6.56764 5.47045C6.30985 5.49911 5.77347 5.5588 5.29772 6.07707C4.89851 6.49848 4.78685 7.39927 4.78181 7.44195C4.78087 7.45234 4.68701 8.49785 4.68701 9.52919V10.5007C4.68701 11.5331 4.78056 12.5775 4.78166 12.5898C4.78544 12.6281 4.88244 13.5305 5.28087 13.9511C5.70764 14.4168 6.24355 14.4838 6.5637 14.5238C6.62402 14.5314 6.67725 14.5379 6.73567 14.5486C7.7141 14.6464 10.7935 14.6772 10.924 14.6785C10.9247 14.6785 10.9253 14.6785 10.9259 14.6785C10.9517 14.6785 13.5294 14.6722 15.244 14.544C15.267 14.5408 15.2927 14.5383 15.3209 14.5353C15.5949 14.507 16.1046 14.4541 16.5632 13.953C16.9621 13.5319 17.078 12.6314 17.0832 12.5895C17.0842 12.5791 17.1881 11.5341 17.1881 10.5008V9.52935C17.1881 8.49738 17.0843 7.44573 17.0831 7.43329ZM16.873 10.5008C16.873 11.5177 16.7708 12.5478 16.7702 12.5544C16.7413 12.7856 16.6072 13.4486 16.3325 13.7385C15.953 14.1531 15.5369 14.1963 15.2883 14.2221C15.2574 14.2254 15.2291 14.2282 15.2121 14.2308C13.5286 14.3566 10.985 14.3635 10.9262 14.3637C10.8554 14.3629 7.72544 14.3311 6.78181 14.2374C6.73189 14.2278 6.67142 14.2199 6.60292 14.2114C6.3078 14.1744 5.86181 14.1186 5.51158 13.7364C5.18528 13.3917 5.09599 12.5659 5.09536 12.5596C5.09441 12.5494 5.00213 11.5191 5.00213 10.5008V9.52935C5.00213 8.51266 5.09457 7.48085 5.09504 7.47486C5.1226 7.24368 5.25394 6.58116 5.52811 6.29171C5.92559 5.8588 6.34937 5.81156 6.6026 5.78337L6.64717 5.77817C8.34056 5.65077 10.901 5.62746 10.9302 5.6273C10.9558 5.62762 13.5213 5.65077 15.2097 5.77754L15.2758 5.78494C15.5292 5.81187 15.9533 5.85675 16.344 6.28258C16.6711 6.62793 16.7691 7.46022 16.7697 7.46652C16.7708 7.47691 16.873 8.51344 16.873 9.52935V10.5008Z" fill="#8F8F8F"/>
</g>
<defs>
<clipPath id="clip0_2001_115">
<rect width="20" height="20" fill="white" transform="translate(0.9375)"/>
</clipPath>
</defs>
</svg>
