<svg width="18" height="18" viewBox="0 0 18 18" fill="none" xmlns="http://www.w3.org/2000/svg">
<g clip-path="url(#clip0_2001_2250)">
<path d="M2.59546 9.74434L8.78296 12.3316C8.85219 12.3607 8.92634 12.375 8.99992 12.375C9.07355 12.375 9.1477 12.3607 9.21689 12.3316L15.4044 9.74434C15.5626 9.67841 15.6818 9.54385 15.7285 9.37904C15.7752 9.21479 15.7444 9.03736 15.645 8.89837L9.45752 0.235674C9.35209 0.0879753 9.17618 7.57917e-05 9.00019 4.89106e-08C8.82405 -7.56938e-05 8.64787 0.0878238 8.54236 0.235674L2.35486 8.89837C2.25545 9.03736 2.22466 9.21479 2.27135 9.37904C2.31805 9.54385 2.43727 9.67841 2.59546 9.74434ZM9.56247 10.9676V2.31792L14.3201 8.97858L9.56247 10.9676ZM8.43746 2.31792V10.9676L3.67983 8.97858L8.43746 2.31792Z" fill="#8F8F8F"/>
<path d="M15.6628 11.5479C15.5156 11.3172 15.2228 11.2271 14.9707 11.3303L9.00012 13.8264L3.02959 11.3303C2.77691 11.2254 2.48465 11.3166 2.33745 11.5479C2.19077 11.7797 2.23198 12.0835 2.43576 12.2669L8.62326 17.8551C8.73036 17.9518 8.86496 18.0001 9.00008 18.0001C9.13521 18.0001 9.2698 17.9518 9.3769 17.8551L15.5644 12.2669C15.7682 12.0835 15.8094 11.7797 15.6628 11.5479ZM9.00012 16.6796L5.63173 13.638L8.78316 14.9553C8.92158 15.0136 9.0787 15.0136 9.21712 14.9553L12.3686 13.638C12.3685 13.638 9.00012 16.6796 9.00012 16.6796Z" fill="#8F8F8F"/>
</g>
<defs>
<clipPath id="clip0_2001_2250">
<rect width="18" height="18" fill="white"/>
</clipPath>
</defs>
</svg>
