<svg width="18" height="18" viewBox="0 0 18 18" fill="none" xmlns="http://www.w3.org/2000/svg">
<path d="M1.6644 5.8418H0.686279V13.4221H1.6644V5.8418Z" fill="#8F8F8F"/>
<path d="M9.00023 16.984C8.66706 16.984 8.34211 16.919 8.03456 16.7909L4.18773 15.1881C3.24909 14.7969 2.64258 13.8872 2.64258 12.8703V4.68164H15.3579V12.8703C15.3579 13.8871 14.7514 14.7969 13.8128 15.188L9.96594 16.7908C9.65836 16.919 9.33348 16.984 9.00023 16.984ZM3.62066 5.65972V12.8703C3.62066 13.491 3.99086 14.0464 4.56383 14.2851L8.41066 15.8879C8.59847 15.9662 8.79682 16.0058 9.0002 16.0058C9.20358 16.0058 9.40196 15.9662 9.58973 15.8879L13.4366 14.2851C14.0095 14.0464 14.3797 13.491 14.3797 12.8703V5.65972H3.62066Z" fill="#8F8F8F"/>
<path d="M8.74991 1.56017L0.82362 5.31472C0.377804 5.5259 0.377804 6.16023 0.82362 6.37141L8.74995 10.126C8.90836 10.201 9.09209 10.201 9.2505 10.126L17.1768 6.37141C17.6226 6.16023 17.6226 5.5259 17.1768 5.31472L9.25047 1.56017C9.09205 1.48515 8.90833 1.48515 8.74991 1.56017Z" fill="#8F8F8F"/>
<path d="M8.99996 10.6701C8.84204 10.6701 8.6831 10.6345 8.5404 10.5668L0.614039 6.81224C0.235266 6.63284 0 6.26106 0 5.84193C0 5.42279 0.235266 5.05102 0.614039 4.87161L8.54037 1.11703C8.82598 0.981822 9.17409 0.981822 9.4596 1.11703L17.386 4.87158C17.7647 5.05102 18 5.42279 18 5.84189C18 6.26099 17.7647 6.6328 17.386 6.8122L9.45963 10.5668C9.31683 10.6344 9.15792 10.6701 8.99996 10.6701ZM8.99996 1.99176C8.98569 1.99176 8.97195 1.99485 8.95904 2.00097L1.03279 5.75555C0.996504 5.7727 0.978117 5.80178 0.978117 5.84193C0.978117 5.88208 0.996504 5.91111 1.03279 5.92834L8.95908 9.68289C8.98474 9.69512 9.01512 9.69512 9.04089 9.68289L16.9671 5.92834C17.0034 5.91118 17.0218 5.88211 17.0218 5.84196C17.0218 5.80181 17.0034 5.77277 16.9671 5.75555L9.04085 2.00097C9.02805 1.99485 9.01424 1.99176 8.99996 1.99176Z" fill="#8F8F8F"/>
</svg>
