<svg width="18" height="18" viewBox="0 0 18 18" fill="none" xmlns="http://www.w3.org/2000/svg">
<g clip-path="url(#clip0_2001_2185)">
<path d="M15.4688 15.9082H15.1875C15.0187 15.9082 14.9062 16.0207 14.9062 16.1895C14.9062 16.3582 15.0187 16.4707 15.1875 16.4707H15.4688C15.6375 16.4707 15.75 16.3582 15.75 16.1895C15.75 16.0207 15.6375 15.9082 15.4688 15.9082Z" fill="#8F8F8F"/>
<path d="M16.5938 15.9082H16.3125C16.1437 15.9082 16.0312 16.0207 16.0312 16.1895C16.0312 16.3582 16.1437 16.4707 16.3125 16.4707H16.5938C16.7625 16.4707 16.875 16.3582 16.875 16.1895C16.875 16.0207 16.7625 15.9082 16.5938 15.9082Z" fill="#8F8F8F"/>
<path d="M14.3438 15.9082H14.0625C13.8937 15.9082 13.7812 16.0207 13.7812 16.1895C13.7812 16.3582 13.8937 16.4707 14.0625 16.4707H14.3438C14.5125 16.4707 14.625 16.3582 14.625 16.1895C14.625 16.0207 14.5125 15.9082 14.3438 15.9082Z" fill="#8F8F8F"/>
<path d="M18 15.3457C18 15.177 17.8875 15.0645 17.7188 15.0645H0.28125C0.1125 15.0645 0 15.177 0 15.3457V17.0332C0 17.202 0.1125 17.3145 0.28125 17.3145H17.7188C17.8875 17.3145 18 17.202 18 17.0332V15.3457ZM0.5625 15.627H17.4375V16.752H0.5625V15.627Z" fill="#8F8F8F"/>
<path d="M1.6875 8.0332C1.51875 8.0332 1.40625 8.1457 1.40625 8.31445V14.2207C1.40625 14.3895 1.51875 14.502 1.6875 14.502H3.09375C3.2625 14.502 3.375 14.3895 3.375 14.2207V8.31445C3.375 8.1457 3.2625 8.0332 3.09375 8.0332H1.6875ZM2.8125 13.9395H1.96875V8.5957H2.8125V13.9395Z" fill="#8F8F8F"/>
<path d="M4.78125 6.3457C4.6125 6.3457 4.5 6.4582 4.5 6.62695V14.2207C4.5 14.3895 4.6125 14.502 4.78125 14.502H6.1875C6.35625 14.502 6.46875 14.3895 6.46875 14.2207V6.62695C6.46875 6.4582 6.35625 6.3457 6.1875 6.3457H4.78125ZM5.90625 13.9395H5.0625V6.9082H5.90625V13.9395Z" fill="#8F8F8F"/>
<path d="M7.875 4.93945C7.70625 4.93945 7.59375 5.05195 7.59375 5.2207V14.2207C7.59375 14.3895 7.70625 14.502 7.875 14.502H9.28125C9.45 14.502 9.5625 14.3895 9.5625 14.2207V5.2207C9.5625 5.05195 9.45 4.93945 9.28125 4.93945H7.875ZM9 13.9395H8.15625V5.50195H9V13.9395Z" fill="#8F8F8F"/>
<path d="M11.25 3.5332C11.0812 3.5332 10.9688 3.6457 10.9688 3.81445V14.2207C10.9688 14.3895 11.0812 14.502 11.25 14.502H12.6562C12.825 14.502 12.9375 14.3895 12.9375 14.2207V3.81445C12.9375 3.6457 12.825 3.5332 12.6562 3.5332H11.25ZM12.375 13.9395H11.5312V4.0957H12.375V13.9395Z" fill="#8F8F8F"/>
<path d="M14.625 14.502H16.0312C16.2 14.502 16.3125 14.3895 16.3125 14.2207V2.4082C16.3125 2.23945 16.2 2.12695 16.0312 2.12695H14.625C14.4562 2.12695 14.3438 2.23945 14.3438 2.4082V14.2207C14.3438 14.3895 14.4562 14.502 14.625 14.502ZM14.9062 2.68945H15.75V13.9395H14.9062V2.68945Z" fill="#8F8F8F"/>
<path d="M15.4406 0.859836C15.3844 0.719211 15.2156 0.634836 15.075 0.719211L1.57502 6.51296C1.4344 6.56921 1.37815 6.73796 1.4344 6.87859C1.49065 6.99109 1.57502 7.04734 1.68752 7.04734C1.71565 7.04734 1.7719 7.04734 1.80002 7.01921L15.3 1.22546C15.4406 1.16921 15.4969 1.00046 15.4406 0.859836Z" fill="#8F8F8F"/>
</g>
<defs>
<clipPath id="clip0_2001_2185">
<rect width="18" height="18" fill="white"/>
</clipPath>
</defs>
</svg>
