<svg width="18" height="18" viewBox="0 0 18 18" fill="none" xmlns="http://www.w3.org/2000/svg">
<g clip-path="url(#clip0_2001_2255)">
<path d="M17.0999 4.19767C17.0999 4.19287 17.0981 4.18867 17.0978 4.18387C17.0966 4.16167 17.0939 4.14007 17.0882 4.11907C17.0855 4.11007 17.0813 4.10197 17.0777 4.09327C17.0714 4.07707 17.0654 4.06147 17.0564 4.04677C17.051 4.03777 17.0441 4.02997 17.0381 4.02187C17.0285 4.00897 17.0186 3.99637 17.0072 3.98527C16.9994 3.97777 16.9904 3.97117 16.9817 3.96457C16.9736 3.95827 16.9667 3.95077 16.958 3.94507C16.9529 3.94207 16.9472 3.94057 16.9421 3.93787C16.9379 3.93547 16.9346 3.93187 16.9301 3.92977L8.8301 0.0297734C8.7449 -0.0113266 8.6456 -0.00982663 8.5616 0.0339734L1.0616 3.93397C1.0583 3.93577 1.0562 3.93847 1.0529 3.94027C1.0496 3.94207 1.0457 3.94297 1.0421 3.94507C1.0319 3.95137 1.0241 3.95977 1.0148 3.96727C1.0061 3.97417 0.996802 3.98047 0.988702 3.98827C0.977302 3.99967 0.968302 4.01227 0.959002 4.02517C0.953002 4.03357 0.945802 4.04107 0.940702 4.05007C0.931402 4.06597 0.925102 4.08307 0.919102 4.10047C0.916402 4.10797 0.912502 4.11457 0.910402 4.12237C0.903802 4.14697 0.899902 4.17307 0.899902 4.19977V13.7998C0.899902 13.9135 0.964102 14.0173 1.0658 14.0683L8.8658 17.9683C8.8703 17.9704 8.8751 17.9695 8.8796 17.9716C8.9183 17.9884 8.9585 17.9998 8.9999 17.9998C9.0413 17.9998 9.0818 17.9884 9.1202 17.9713C9.1247 17.9692 9.1298 17.9701 9.134 17.968L16.934 14.068C17.0357 14.0173 17.0999 13.9135 17.0999 13.7998V4.19977C17.0999 4.19977 17.0999 4.19917 17.0999 4.19857V4.19767ZM8.705 0.635173L16.1189 4.20487L8.9999 7.76437L1.8602 4.19467L8.705 0.635173ZM1.4999 4.68517L8.6999 8.28517V17.2144L1.4999 13.6144V4.68517ZM16.4999 13.6144L9.2999 17.2144V8.28517L16.4999 4.68517V13.6144Z" fill="#8F8F8F"/>
</g>
<defs>
<clipPath id="clip0_2001_2255">
<rect width="18" height="18" fill="white"/>
</clipPath>
</defs>
</svg>
