<svg width="37" height="37" viewBox="0 0 37 37" fill="none" xmlns="http://www.w3.org/2000/svg">
<path d="M28.3281 0H8.67188C3.88253 0 0 3.88253 0 8.67188V28.3281C0 33.1175 3.88253 37 8.67188 37H28.3281C33.1175 37 37 33.1175 37 28.3281V8.67188C37 3.88253 33.1175 0 28.3281 0Z" fill="url(#paint0_radial_199_648)"/>
<path d="M28.3281 0H8.67188C3.88253 0 0 3.88253 0 8.67188V28.3281C0 33.1175 3.88253 37 8.67188 37H28.3281C33.1175 37 37 33.1175 37 28.3281V8.67188C37 3.88253 33.1175 0 28.3281 0Z" fill="#8F8F8F"/>
<path d="M18.5013 4C14.5634 4 14.0691 4.01725 12.5225 4.08758C10.9788 4.15834 9.92514 4.40266 9.00322 4.76124C8.04942 5.13157 7.24046 5.62703 6.43455 6.43322C5.62792 7.23927 5.13245 8.04821 4.76096 9.00158C4.40136 9.92377 4.15674 10.9779 4.08729 12.5208C4.01812 14.0675 4 14.562 4 18.5C4 22.438 4.0174 22.9307 4.08758 24.4773C4.15863 26.0209 4.40295 27.0746 4.76125 27.9965C5.13187 28.9503 5.62734 29.7593 6.43354 30.5652C7.2393 31.3718 8.04825 31.8684 9.00134 32.2388C9.92397 32.5973 10.9778 32.8417 12.5212 32.9124C14.0679 32.9827 14.5618 33 18.4996 33C22.4379 33 22.9306 32.9827 24.4772 32.9124C26.0209 32.8417 27.0757 32.5973 27.9984 32.2388C28.9517 31.8684 29.7595 31.3718 30.5652 30.5652C31.3718 29.7593 31.8671 28.9503 32.2387 27.997C32.5952 27.0746 32.8399 26.0206 32.9124 24.4776C32.9819 22.931 33 22.438 33 18.5C33 14.562 32.9819 14.0678 32.9124 12.5211C32.8399 10.9775 32.5952 9.92392 32.2387 9.00202C31.8671 8.04821 31.3718 7.23927 30.5652 6.43322C29.7587 5.62674 28.952 5.13128 27.9975 4.76139C27.0731 4.40266 26.0188 4.15819 24.4752 4.08758C22.9284 4.01725 22.436 4 18.4968 4H18.5013ZM17.2005 6.61302C17.5866 6.61244 18.0174 6.61302 18.5013 6.61302C22.3729 6.61302 22.8317 6.62694 24.3606 6.69639C25.7744 6.76106 26.5417 6.99727 27.0528 7.19577C27.7295 7.45851 28.212 7.77272 28.7192 8.28036C29.2267 8.78785 29.5407 9.27113 29.8042 9.94784C30.0027 10.4582 30.2392 11.2256 30.3036 12.6393C30.373 14.1679 30.3881 14.6269 30.3881 18.4967C30.3881 22.3664 30.373 22.8256 30.3036 24.354C30.2389 25.7678 30.0027 26.5351 29.8042 27.0456C29.5415 27.7223 29.2267 28.2042 28.7192 28.7114C28.2117 29.2189 27.7298 29.5329 27.0528 29.7958C26.5423 29.9952 25.7744 30.2308 24.3606 30.2955C22.832 30.3649 22.3729 30.38 18.5013 30.38C14.6295 30.38 14.1706 30.3649 12.6421 30.2955C11.2284 30.2302 10.4611 29.994 9.94949 29.7955C9.27292 29.5326 8.78949 29.2186 8.28199 28.7111C7.77449 28.2036 7.46042 27.7215 7.19696 27.0445C6.99846 26.5339 6.76196 25.7666 6.69758 24.3529C6.62812 22.8243 6.6142 22.3652 6.6142 18.493C6.6142 14.6209 6.62812 14.1643 6.69758 12.6357C6.76225 11.2219 6.99846 10.4546 7.19696 9.94349C7.45984 9.26678 7.7745 8.7835 8.28214 8.27601C8.78978 7.76851 9.27292 7.4543 9.94964 7.19098C10.4608 6.99161 11.2284 6.75599 12.6421 6.69103C13.9798 6.63056 14.4981 6.61244 17.2005 6.60939V6.61302ZM26.2414 9.02057C25.2808 9.02057 24.5014 9.79922 24.5014 10.76C24.5014 11.7206 25.2808 12.5 26.2414 12.5C27.202 12.5 27.9814 11.7206 27.9814 10.76C27.9814 9.79936 27.202 9.01999 26.2414 9.01999V9.02057ZM18.5013 11.0536C14.3891 11.0536 11.055 14.3877 11.055 18.5C11.055 22.6123 14.3891 25.9448 18.5013 25.9448C22.6136 25.9448 25.9466 22.6123 25.9466 18.5C25.9466 14.3878 22.6134 11.0536 18.501 11.0536H18.5013ZM18.5013 13.6666C21.1706 13.6666 23.3347 15.8304 23.3347 18.5C23.3347 21.1693 21.1706 23.3334 18.5013 23.3334C15.832 23.3334 13.668 21.1693 13.668 18.5C13.668 15.8304 15.8319 13.6666 18.5013 13.6666Z" fill="white"/>
<defs>
<radialGradient id="paint0_radial_199_648" cx="0" cy="0" r="1" gradientUnits="userSpaceOnUse" gradientTransform="translate(9.82812 39.8497) rotate(-90) scale(36.6697 34.1058)">
<stop stop-color="#FFDD55"/>
<stop offset="0.1" stop-color="#FFDD55"/>
<stop offset="0.5" stop-color="#FF543E"/>
<stop offset="1" stop-color="#C837AB"/>
</radialGradient>
</defs>
</svg>
