<svg width="39" height="39" viewBox="0 0 39 39" fill="none" xmlns="http://www.w3.org/2000/svg">
<circle cx="19.501" cy="19.501" r="19.2688" stroke="#171851" stroke-width="0.464309"/>
<path d="M18.5672 21.2593C18.4446 23.1933 17.75 24.6915 16.4833 25.7538C15.2303 26.8161 13.6777 27.3473 11.8254 27.3473C9.63262 27.3473 7.86886 26.6186 6.53413 25.1613C5.19939 23.704 4.53203 21.879 4.53203 19.6862C4.53203 17.5207 5.21301 15.7161 6.57499 14.2724C7.95058 12.8151 9.72796 12.0864 11.9071 12.0864C13.6777 12.0864 15.1895 12.638 16.4425 13.7412C17.7091 14.8308 18.3969 16.1927 18.5059 17.8271H14.1748C14.0522 17.1734 13.7866 16.6694 13.378 16.3153C12.9695 15.9612 12.4519 15.7842 11.8254 15.7842C11.1716 15.7842 10.62 15.9953 10.1706 16.4175C9.73476 16.8261 9.43513 17.3096 9.27169 17.868C9.10826 18.4264 9.02654 19.0325 9.02654 19.6862C9.02654 20.8984 9.27169 21.8517 9.762 22.5463C10.2659 23.241 10.9537 23.5883 11.8254 23.5883C13.1601 23.5883 13.9433 22.8119 14.1748 21.2593H18.5672ZM33.0474 21.2593C32.9249 23.1933 32.2303 24.6915 30.9636 25.7538C29.7106 26.8161 28.158 27.3473 26.3057 27.3473C24.1129 27.3473 22.3491 26.6186 21.0144 25.1613C19.6797 23.704 19.0123 21.879 19.0123 19.6862C19.0123 17.5207 19.6933 15.7161 21.0553 14.2724C22.4309 12.8151 24.2082 12.0864 26.3874 12.0864C28.158 12.0864 29.6697 12.638 30.9228 13.7412C32.1894 14.8308 32.8772 16.1927 32.9861 17.8271H28.6551C28.5325 17.1734 28.2669 16.6694 27.8583 16.3153C27.4497 15.9612 26.9322 15.7842 26.3057 15.7842C25.6519 15.7842 25.1003 15.9953 24.6509 16.4175C24.215 16.8261 23.9154 17.3096 23.752 17.868C23.5885 18.4264 23.5068 19.0325 23.5068 19.6862C23.5068 20.8984 23.752 21.8517 24.2423 22.5463C24.7462 23.241 25.434 23.5883 26.3057 23.5883C27.6404 23.5883 28.4235 22.8119 28.6551 21.2593H33.0474Z" fill="#171851"/>
<rect x="11.1436" y="26.9297" width="1.85714" height="2.78571" fill="#171851"/>
<rect x="11.1436" y="9.28711" width="1.85714" height="2.78571" fill="#171851"/>
<rect x="25.0723" y="26.9297" width="1.85714" height="2.78571" fill="#171851"/>
<rect x="25.0723" y="9.28711" width="1.85714" height="2.78571" fill="#171851"/>
</svg>
