<svg width="18" height="18" viewBox="0 0 18 18" fill="none" xmlns="http://www.w3.org/2000/svg">
<g clip-path="url(#clip0_2146_2263)">
<path d="M2.4423 13.0465C2.27348 12.8777 1.99975 12.8777 1.83089 13.0465L0.943022 13.9344C0.774201 14.1032 0.774201 14.3769 0.943022 14.5458C1.02743 14.6301 1.13807 14.6724 1.24871 14.6724C1.35938 14.6724 1.47005 14.6302 1.55443 14.5458L2.4423 13.6579C2.61112 13.4891 2.61112 13.2153 2.4423 13.0465Z" fill="#8F8F8F"/>
<path d="M3.69762 14.3023C3.52887 14.1336 3.25507 14.1336 3.08629 14.3023L0.126615 17.262C-0.0422052 17.4309 -0.0422052 17.7046 0.126615 17.8735C0.210991 17.9578 0.321663 18.0001 0.4323 18.0001C0.542937 18.0001 0.653573 17.9579 0.737984 17.8735L3.69762 14.9137C3.86647 14.7449 3.86644 14.4712 3.69762 14.3023Z" fill="#8F8F8F"/>
<path d="M4.95412 15.5583C4.78527 15.3895 4.51158 15.3894 4.34279 15.5582L2.86296 17.0381C2.69414 17.2069 2.6941 17.4806 2.86296 17.6495C2.94737 17.7339 3.058 17.7761 3.16864 17.7761C3.27928 17.7761 3.38991 17.7339 3.47433 17.6495L4.95416 16.1697C5.12291 16.0009 5.12298 15.7271 4.95412 15.5583Z" fill="#8F8F8F"/>
<path d="M13.1053 4.89403C12.6018 4.39059 11.9324 4.11328 11.2204 4.11328C10.5083 4.11328 9.83895 4.39056 9.33544 4.89403C8.832 5.39747 8.55469 6.06692 8.55469 6.77897C8.55469 7.49103 8.832 8.16041 9.33544 8.66392C9.83888 9.16735 10.5083 9.44463 11.2204 9.44463C11.9324 9.44463 12.6018 9.16735 13.1053 8.66392C14.1446 7.62448 14.1446 5.93339 13.1053 4.89403ZM12.4938 8.05251C12.1537 8.39268 11.7014 8.58003 11.2203 8.58003C10.7392 8.58003 10.2869 8.39268 9.94681 8.05251C9.6066 7.71234 9.41929 7.26009 9.41929 6.77897C9.41929 6.29786 9.6066 5.84561 9.94681 5.50544C10.2869 5.16526 10.7392 4.97792 11.2203 4.97792C11.7014 4.97792 12.1537 5.16526 12.4938 5.50544C13.1961 6.20765 13.1961 7.3503 12.4938 8.05251Z" fill="#8F8F8F"/>
<path d="M17.6985 0.609255C17.6586 0.459841 17.5419 0.343192 17.3925 0.303219C15.9142 -0.0919731 14.3492 -0.098477 12.8669 0.284375C12.6359 0.344071 12.4081 0.414208 12.1834 0.492184C12.1639 0.497493 12.1448 0.504173 12.1261 0.512223C10.8918 0.950236 9.76284 1.65983 8.8273 2.5927C8.82673 2.59323 8.82621 2.59376 8.82571 2.59425C8.82329 2.59668 8.82079 2.59896 8.81837 2.60139C8.81439 2.60536 8.81098 2.60965 8.80722 2.61369C8.8036 2.61763 8.7997 2.62122 8.79615 2.62533L7.47202 4.16641C5.38901 4.14341 3.36467 4.96646 1.88871 6.44243C1.40879 6.92235 0.99468 7.4602 0.657918 8.04105C0.589961 8.15827 0.58089 8.30054 0.633414 8.42545C0.685937 8.5504 0.793973 8.64342 0.925247 8.67679L3.32808 9.28847L2.85793 10.5653C2.62576 11.1959 2.78277 11.9103 3.2579 12.3855L5.61636 14.7439C5.94574 15.0732 6.38998 15.2498 6.84167 15.2498C7.04164 15.2498 7.24308 15.2151 7.43662 15.1439L8.71353 14.6738L9.32532 17.0767C9.35868 17.208 9.45178 17.316 9.57665 17.3686C9.63037 17.3911 9.6874 17.4023 9.74421 17.4023C9.81937 17.4023 9.89429 17.3827 9.96105 17.344C10.5418 17.0073 11.0796 16.5932 11.5597 16.1132C13.0358 14.6371 13.8584 12.6125 13.8357 10.5296L15.3766 9.20557C15.3806 9.20213 15.3841 9.1983 15.388 9.19471C15.3921 9.19088 15.3965 9.18736 15.4006 9.18335C15.403 9.18089 15.4053 9.17833 15.4078 9.17594C15.4082 9.17541 15.4088 9.17495 15.4093 9.17443C16.3421 8.23892 17.0517 7.11001 17.4897 5.87578C17.4977 5.85697 17.5044 5.83774 17.5097 5.81819C17.5877 5.59354 17.6579 5.3658 17.7175 5.13479C18.1003 3.65253 18.0937 2.08761 17.6985 0.609255ZM1.71753 7.98635C1.94931 7.65483 2.21126 7.34264 2.50007 7.0538C3.6307 5.92317 5.12337 5.2244 6.69946 5.0656L3.74622 8.5028L1.71753 7.98635ZM3.66916 10.864L4.07153 9.77134L4.62918 10.329L3.7863 11.6779C3.61481 11.4463 3.56788 11.1392 3.66916 10.864ZM4.4086 12.3136L5.25665 10.9564L5.84534 11.5451L4.74273 12.6477L4.4086 12.3136ZM5.35406 13.259L6.45667 12.1565L7.04533 12.7451L5.68819 13.5932L5.35406 13.259ZM7.13772 14.3326C6.86252 14.4338 6.5555 14.3869 6.32389 14.2155L7.67276 13.3726L8.23041 13.9302L7.13772 14.3326ZM10.9482 15.5019C10.6593 15.7907 10.3471 16.0526 10.0156 16.2844L9.49906 14.2556L12.9364 11.3022C12.7777 12.8782 12.0788 14.3712 10.9482 15.5019ZM14.7982 8.5626L9.03623 13.5133L4.48848 8.96556L7.98583 4.89513C7.98924 4.89136 7.99247 4.88743 7.99578 4.88352L9.43916 3.20365C10.2259 2.41956 11.1638 1.81055 12.1885 1.41135L16.5904 5.8133C16.1913 6.83804 15.5823 7.77594 14.7982 8.5626ZM16.8878 4.88792L13.1139 1.11403C14.3616 0.797025 15.6729 0.784615 16.9246 1.07715C17.2171 2.32879 17.2048 3.64019 16.8878 4.88792Z" fill="#8F8F8F"/>
</g>
<defs>
<clipPath id="clip0_2146_2263">
<rect width="18" height="18" fill="white"/>
</clipPath>
</defs>
</svg>
