<svg width="18" height="18" viewBox="0 0 18 18" fill="none" xmlns="http://www.w3.org/2000/svg">
<g clip-path="url(#clip0_2146_2281)">
<path d="M17.6517 14.1721L11.4977 3.51514C11.3389 3.2393 10.9869 3.14505 10.7107 3.3042C10.4352 3.46304 10.341 3.81535 10.5001 4.0909L16.6538 14.7476C16.8529 15.0933 16.9032 15.4022 16.7914 15.5954C16.68 15.7889 16.387 15.8996 15.9885 15.8996L2.01132 15.8987C1.61219 15.8987 1.31951 15.7879 1.2081 15.5948C1.09668 15.4019 1.14692 15.093 1.34633 14.7478L8.33442 2.64266C8.53383 2.29753 8.77631 2.09938 8.99941 2.09938C9.22223 2.09938 9.46436 2.29753 9.66408 2.64266C9.82292 2.9179 10.1755 3.01275 10.4508 2.85328C10.7263 2.69445 10.8209 2.34183 10.6617 2.0663C10.2511 1.35543 9.64474 0.947266 8.99941 0.947266C8.35376 0.947266 7.74808 1.35512 7.33678 2.06662L0.348656 14.1721C-0.0620092 14.8836 -0.112248 15.6122 0.21042 16.1711C0.533088 16.73 1.18964 17.0505 2.01128 17.0505L15.9882 17.0511C16.8095 17.0511 17.466 16.7306 17.789 16.1721C18.1123 15.6129 18.0621 14.8839 17.6517 14.1721Z" fill="#8F8F8F"/>
<path d="M8.99987 12.1547C9.31818 12.1547 9.57623 11.8969 9.57591 11.579V5.60534C9.57591 5.28703 9.31783 5.0293 8.99987 5.0293C8.68188 5.0293 8.42383 5.28707 8.42383 5.60534V11.5787C8.42383 11.897 8.6816 12.1547 8.99987 12.1547Z" fill="#8F8F8F"/>
<path d="M9.0002 14.6462C9.4321 14.6462 9.78001 14.2964 9.78001 13.8657C9.78001 13.4354 9.43206 13.0859 9.0002 13.0859C8.56861 13.0859 8.2207 13.4354 8.2207 13.8657C8.2207 14.2964 8.56865 14.6462 9.0002 14.6462Z" fill="#8F8F8F"/>
</g>
<defs>
<clipPath id="clip0_2146_2281">
<rect width="18" height="18" fill="white"/>
</clipPath>
</defs>
</svg>
