<svg width="18" height="18" viewBox="0 0 18 18" fill="none" xmlns="http://www.w3.org/2000/svg">
<path d="M7.4843 16.293H3.69485C3.53787 16.293 3.41064 16.4202 3.41064 16.5772C3.41064 16.7342 3.53791 16.8614 3.69485 16.8614H7.4843C7.64128 16.8614 7.76851 16.7342 7.76851 16.5772C7.76851 16.4202 7.64128 16.293 7.4843 16.293Z" fill="#8F8F8F"/>
<path d="M16.8433 6.06121H16.1055V5.32338C16.1055 4.89441 15.7565 4.54545 15.3275 4.54545H12.5946C12.6606 4.26824 12.6949 3.98221 12.6949 3.6928C12.6949 2.67928 12.2927 1.7339 11.5623 1.03077C10.8323 0.327999 9.87109 -0.0376615 8.85638 0.000799436C7.90058 0.037151 7.00656 0.440006 6.33884 1.13522C5.67154 1.83001 5.30454 2.73961 5.30545 3.69632C5.30574 3.98449 5.34008 4.26933 5.40576 4.54538H2.67292C2.24394 4.54538 1.89495 4.89434 1.89495 5.32335V6.06117H1.15712C0.728147 6.06117 0.37915 6.41013 0.37915 6.83915V17.7138C0.37915 17.8708 0.506416 17.998 0.663354 17.998H17.337C17.494 17.998 17.6213 17.8708 17.6213 17.7138V6.83918C17.6213 6.41017 17.2723 6.06121 16.8433 6.06121ZM1.89495 17.4296H0.947557V6.83918C0.947557 6.72366 1.04153 6.62965 1.15712 6.62965H1.89495V17.4296ZM8.87803 0.568784C9.73767 0.536475 10.5505 0.845639 11.1681 1.44027C11.7862 2.03522 12.1265 2.8352 12.1265 3.69277C12.1265 4.57607 11.75 5.42228 11.0936 6.01445C10.5459 6.50861 10.2318 7.20428 10.2318 7.92312V8.33483H7.76861V7.92189C7.76861 7.20382 7.45441 6.50854 6.90665 6.01435C6.25116 5.42295 5.87474 4.57786 5.87386 3.69576C5.87228 2.03462 7.21992 0.631819 8.87803 0.568784ZM10.2318 8.90331V9.98591C10.2318 10.1203 10.1224 10.2296 9.98806 10.2296H8.01227C7.87791 10.2296 7.76857 10.1203 7.76857 9.98591V8.90331H10.2318ZM2.46335 5.32338C2.46335 5.20786 2.55733 5.11385 2.67292 5.11385H5.59057C5.79887 5.61335 6.11626 6.06683 6.5259 6.43643C6.95442 6.82304 7.2002 7.36449 7.2002 7.92196V9.98598C7.2002 10.4338 7.56452 10.7981 8.01231 10.7981H8.71596V15.441C8.47827 15.2621 8.18303 15.156 7.86332 15.156H2.46332V5.32338H2.46335ZM15.5371 6.34506C15.5371 6.34517 15.537 6.34527 15.537 6.34545C15.537 6.34559 15.537 6.34566 15.537 6.34583V15.156H13.2924C13.1354 15.156 13.0082 15.2832 13.0082 15.4402C13.0082 15.5971 13.1354 15.7244 13.2924 15.7244H15.537V17.4296H2.46335V15.7244H7.86335C8.329 15.7244 8.70868 16.0995 8.71586 16.5635C8.71825 16.7175 8.83156 16.853 8.98536 16.8608C9.14905 16.8691 9.2844 16.7389 9.2844 16.577C9.2844 16.1069 9.66687 15.7244 10.137 15.7244H11.9079C12.0649 15.7244 12.1921 15.5971 12.1921 15.4402C12.1921 15.2832 12.0649 15.156 11.9079 15.156H10.137C9.81737 15.156 9.52209 15.2621 9.2844 15.4409V10.7981H9.98806C10.4366 10.7981 10.8002 10.4345 10.8002 9.98598V7.92319C10.8002 7.36498 11.0459 6.82312 11.4744 6.43654C11.8841 6.06687 12.2015 5.61335 12.4098 5.11389H15.3275C15.4432 5.11389 15.537 5.20772 15.537 5.32345L15.5371 6.34506ZM17.0528 17.4296H16.1055V6.62961H16.8433C16.9588 6.62961 17.0528 6.72359 17.0528 6.83915V17.4296H17.0528Z" fill="#8F8F8F"/>
<path d="M14.3051 16.293H10.5156C10.3587 16.293 10.2314 16.4202 10.2314 16.5772C10.2314 16.7342 10.3587 16.8614 10.5156 16.8614H14.3051C14.4621 16.8614 14.5893 16.7342 14.5893 16.5772C14.5893 16.4202 14.4621 16.293 14.3051 16.293Z" fill="#8F8F8F"/>
<path d="M9.87962 3.78928H8.14754V2.84193H10.137C10.294 2.84193 10.4212 2.71473 10.4212 2.55773C10.4212 2.40072 10.2939 2.27352 10.137 2.27352H9.28436V1.79983C9.28436 1.64282 9.15709 1.51562 9.00015 1.51562C8.84321 1.51562 8.71595 1.64286 8.71595 1.79983V2.27352H8.12068C7.82203 2.27352 7.5791 2.51649 7.5791 2.81511V3.81614C7.5791 4.1148 7.82203 4.35773 8.12068 4.35773H9.85276V5.30508H7.8633C7.70633 5.30508 7.5791 5.43228 7.5791 5.58928C7.5791 5.74629 7.70637 5.87349 7.8633 5.87349H8.71595V6.34718C8.71595 6.50419 8.84321 6.63139 9.00015 6.63139C9.15709 6.63139 9.28436 6.50419 9.28436 6.34718V5.87349H9.87962C10.1783 5.87349 10.4212 5.63056 10.4212 5.33191V4.33087C10.4212 4.03221 10.1782 3.78928 9.87962 3.78928Z" fill="#8F8F8F"/>
</svg>
