<svg width="37" height="37" viewBox="0 0 37 37" fill="none" xmlns="http://www.w3.org/2000/svg">
<path d="M18.5 0C13.5946 0 8.88578 1.9503 5.41992 5.41848C1.95051 8.88804 0.000992781 13.5934 0 18.5C0 23.4045 1.95117 28.1133 5.41992 31.5815C8.88578 35.0497 13.5946 37 18.5 37C23.4054 37 28.1142 35.0497 31.5801 31.5815C35.0488 28.1133 37 23.4045 37 18.5C37 13.5955 35.0488 8.88665 31.5801 5.41848C28.1142 1.9503 23.4054 0 18.5 0Z" fill="#8F8F8F"/>
<path d="M8.3747 18.3185C13.7444 15.9196 17.3242 14.3381 19.1141 13.5739C24.2306 11.3919 25.2925 11.013 25.986 11.0001C26.1385 10.9976 26.4781 11.0363 26.6997 11.22C26.8838 11.3749 26.9356 11.5845 26.9615 11.7316C26.9845 11.8786 27.0162 12.2136 26.9903 12.4751C26.714 15.4618 25.5141 22.7098 24.904 26.0552C24.6479 27.4707 24.1385 27.9452 23.6465 27.9916C22.576 28.0925 21.7645 27.2667 20.7285 26.5705C19.1084 25.4806 18.1933 24.8023 16.6192 23.739C14.8005 22.51 15.9804 21.8344 17.0163 20.7306C17.2868 20.4417 22.0004 16.0456 22.0896 15.6469C22.1012 15.597 22.1127 15.4111 22.0033 15.3131C21.8968 15.2148 21.7386 15.2485 21.6235 15.275C21.4594 15.3128 18.8724 17.0683 13.8538 20.5411C13.12 21.0588 12.4552 21.3112 11.8567 21.2979C11.2006 21.2834 9.93439 20.9166 8.99339 20.6031C7.84233 20.2186 6.92435 20.0152 7.00493 19.3621C7.04522 19.0221 7.50276 18.6741 8.3747 18.3185Z" fill="white"/>
</svg>
