<svg width="18" height="18" viewBox="0 0 18 18" fill="none" xmlns="http://www.w3.org/2000/svg">
<g clip-path="url(#clip0_2001_2259)">
<path d="M18 7.87637C18 7.87591 18 7.87546 18 7.875C18 7.87321 17.9998 7.87148 17.9997 7.86969C17.9996 7.86241 17.9993 7.85514 17.9986 7.84786C17.9983 7.84417 17.9976 7.84058 17.9971 7.83696C17.9964 7.83155 17.9957 7.82617 17.9947 7.82075C17.9936 7.81527 17.9921 7.80989 17.9907 7.80451C17.9898 7.80107 17.9891 7.79762 17.988 7.79418C17.9859 7.78707 17.9834 7.78015 17.9807 7.77329C17.9801 7.77171 17.9796 7.77006 17.979 7.76848L17.9783 7.76682C17.9781 7.76612 17.9778 7.76542 17.9775 7.76472L15.4478 1.58101C15.4384 1.5582 15.4262 1.53749 15.412 1.51864C15.6171 1.36455 15.75 1.11937 15.75 0.84375C15.75 0.378527 15.3715 0 14.9062 0C14.4551 0 14.0855 0.355992 14.0636 0.801844L9.97123 1.96327C9.71842 1.53123 9.19614 1.30627 8.69291 1.449C8.40382 1.53102 8.16398 1.72072 8.01759 1.98316C7.91803 2.16158 7.86994 2.35912 7.87504 2.55814L3.77501 3.72171C3.62137 3.51172 3.37328 3.375 3.09375 3.375C2.62849 3.375 2.25 3.75353 2.25 4.21875C2.25 4.48372 2.37291 4.72046 2.56458 4.87526L0.0223945 11.1399C0.0221484 11.1405 0.0219375 11.1411 0.0216914 11.1416L0.0206367 11.1442C0.0198633 11.1461 0.0193711 11.1481 0.0186328 11.15C0.0161719 11.1564 0.0137812 11.163 0.0118125 11.1696C0.0107227 11.1732 0.00994922 11.1769 0.009 11.1805C0.00769922 11.1857 0.00629297 11.1908 0.00527344 11.1961C0.00421875 11.2015 0.00355078 11.2069 0.0028125 11.2123C0.00232031 11.2159 0.0016875 11.2195 0.00133594 11.2231C0.000667969 11.2301 0.000421875 11.2371 0.00028125 11.2441C0.000246094 11.2461 0 11.248 0 11.25C0 11.2507 3.51563e-05 11.2513 3.51563e-05 11.252C3.51563e-05 11.2533 7.03125e-05 11.2546 7.03125e-05 11.2559C0.00326953 12.9591 1.38983 14.3438 3.09375 14.3438C4.79795 14.3438 6.18465 12.9587 6.18743 11.2551C6.18746 11.2539 6.18746 11.2526 6.18746 11.2514C6.18746 11.2509 6.18746 11.2505 6.18746 11.25C6.18746 11.2482 6.18722 11.2465 6.18718 11.2447C6.18704 11.2374 6.1868 11.2301 6.18609 11.2229C6.18574 11.2192 6.18507 11.2156 6.18458 11.212C6.18384 11.2065 6.18318 11.2012 6.18212 11.1958C6.18103 11.1903 6.17959 11.1849 6.17818 11.1795C6.1773 11.1761 6.17657 11.1726 6.17551 11.1692C6.17337 11.1621 6.17084 11.1551 6.16816 11.1483C6.16753 11.1467 6.16711 11.1451 6.16648 11.1435L6.16581 11.1418C6.16553 11.1411 6.16525 11.1404 6.16493 11.1397L3.63523 4.95598C3.62587 4.93316 3.61364 4.91245 3.59947 4.89361C3.79406 4.74739 3.92365 4.51912 3.93634 4.26062L8.02874 3.09923C8.06906 3.16818 8.11677 3.23125 8.16964 3.28901C8.16107 3.31611 8.15625 3.34498 8.15625 3.375V14.9062C7.69099 14.9062 7.3125 15.2848 7.3125 15.75V16.3125H5.90625C5.44103 16.3125 5.0625 16.691 5.0625 17.1562V17.7188C5.0625 17.8741 5.18843 18 5.34375 18H12.6562C12.8116 18 12.9375 17.8741 12.9375 17.7188V17.1562C12.9375 16.691 12.559 16.3125 12.0938 16.3125H10.6875V15.75C10.6875 15.2848 10.309 14.9062 9.84375 14.9062V3.375C9.84375 3.34543 9.83914 3.31692 9.83067 3.29013C9.88847 3.22661 9.93959 3.15619 9.98248 3.07934C10.082 2.90092 10.1301 2.70338 10.125 2.50432L14.225 1.34075C14.2686 1.40031 14.3197 1.45396 14.3771 1.50026L11.8349 7.76493C11.8347 7.76549 11.8345 7.76609 11.8342 7.76665L11.8332 7.76925C11.8324 7.77115 11.8319 7.77308 11.8312 7.77502C11.8287 7.78145 11.8263 7.78795 11.8243 7.7946C11.8233 7.79822 11.8225 7.80187 11.8215 7.8055C11.8202 7.81066 11.8188 7.81583 11.8178 7.82111C11.8168 7.82652 11.8161 7.8319 11.8153 7.83731C11.8149 7.84093 11.8142 7.84448 11.8139 7.84814C11.8132 7.85514 11.813 7.86213 11.8128 7.86913C11.8128 7.8711 11.8125 7.873 11.8125 7.875C11.8125 7.87567 11.8126 7.8763 11.8126 7.87697C11.8126 7.87827 11.8126 7.87957 11.8126 7.88087C11.8158 9.58409 13.2023 10.9688 14.9062 10.9688C16.6104 10.9688 17.9972 9.58366 17.9999 7.88013C18 7.87887 18 7.87764 18 7.87637ZM14.9062 0.5625C15.0613 0.5625 15.1875 0.688676 15.1875 0.84375C15.1875 0.998824 15.0613 1.125 14.9062 1.125C14.7512 1.125 14.625 0.998824 14.625 0.84375C14.625 0.688676 14.7512 0.5625 14.9062 0.5625ZM8.50876 2.25721C8.58196 2.126 8.70187 2.03112 8.84644 1.99013C8.89759 1.97561 8.94906 1.96868 8.99979 1.96868C9.24486 1.96868 9.47085 2.13036 9.54106 2.37751C9.54106 2.37758 9.54109 2.37762 9.54109 2.37769L9.54113 2.37779C9.58208 2.52229 9.56436 2.67412 9.49117 2.80529C9.41797 2.9365 9.29805 3.03138 9.15349 3.07237C8.85516 3.15707 8.54353 2.98322 8.45884 2.68495L8.45881 2.68485L8.45877 2.68478C8.41785 2.54021 8.43557 2.38841 8.50876 2.25721ZM3.09375 3.9375C3.24882 3.9375 3.375 4.06368 3.375 4.21875C3.375 4.37382 3.24882 4.5 3.09375 4.5C2.93868 4.5 2.8125 4.37382 2.8125 4.21875C2.8125 4.06368 2.93868 3.9375 3.09375 3.9375ZM5.48733 10.9688H5.34375C5.18843 10.9688 5.0625 11.0947 5.0625 11.25C5.0625 11.4053 5.18843 11.5312 5.34375 11.5312H5.6095C5.46912 12.7951 4.39443 13.7812 3.09375 13.7812C1.79307 13.7812 0.718383 12.7951 0.578004 11.5312H4.21875C4.37407 11.5312 4.5 11.4053 4.5 11.25C4.5 11.0947 4.37407 10.9688 4.21875 10.9688H0.698906L3.09396 5.06661C3.09445 5.10079 3.10096 5.13545 3.11467 5.16899L5.48733 10.9688ZM10.125 15.75V16.5934C10.125 16.5935 10.125 16.5936 10.125 16.5938C10.125 16.7491 10.2509 16.875 10.4062 16.875H12.0938C12.2488 16.875 12.375 17.0012 12.375 17.1562V17.4375H5.625V17.1562C5.625 17.0012 5.75118 16.875 5.90625 16.875H9.28125C9.43657 16.875 9.5625 16.7491 9.5625 16.5938C9.5625 16.4384 9.43657 16.3125 9.28125 16.3125H7.875V15.75C7.875 15.5949 8.00118 15.4688 8.15625 15.4688H9.84375C9.99882 15.4688 10.125 15.5949 10.125 15.75ZM8.71875 14.9062V3.61986C8.80984 3.64356 8.9043 3.65639 9.00039 3.65639C9.09327 3.65639 9.18749 3.64412 9.28125 3.6199V14.9062H8.71875ZM14.9062 10.4062C13.6056 10.4062 12.5309 9.42008 12.3905 8.15625H16.0312C16.1866 8.15625 16.3125 8.03032 16.3125 7.875C16.3125 7.71968 16.1866 7.59375 16.0312 7.59375H12.5114L14.9065 1.69161C14.907 1.72579 14.9135 1.76045 14.9272 1.79399L17.2998 7.59375H17.1562C17.0009 7.59375 16.875 7.71968 16.875 7.875C16.875 8.03032 17.0009 8.15625 17.1562 8.15625H17.422C17.2816 9.42008 16.2069 10.4062 14.9062 10.4062Z" fill="#8F8F8F"/>
</g>
<defs>
<clipPath id="clip0_2001_2259">
<rect width="18" height="18" fill="white"/>
</clipPath>
</defs>
</svg>
