<svg width="37" height="29" viewBox="0 0 37 29" fill="none" xmlns="http://www.w3.org/2000/svg">
<path fill-rule="evenodd" clip-rule="evenodd" d="M18.5 0C20.0818 0 21.7042 0.0398752 23.2767 0.105125L25.1341 0.192125L26.912 0.295438L28.577 0.406L30.0976 0.522C31.7482 0.645053 33.3015 1.33479 34.4839 2.46972C35.6664 3.60464 36.4021 5.11197 36.5616 6.72619L36.6355 7.4965L36.7743 9.14587C36.9038 10.8551 37 12.7183 37 14.5C37 16.2817 36.9038 18.1449 36.7743 19.8541L36.6355 21.5035L36.5616 22.2738C36.402 23.8883 35.666 25.3959 34.4832 26.5308C33.3004 27.6658 31.7467 28.3554 30.0958 28.478L28.5788 28.5922L26.9138 28.7046L25.1341 28.8079L23.2767 28.8949C21.6854 28.9624 20.0928 28.9975 18.5 29C16.9072 28.9975 15.3146 28.9624 13.7233 28.8949L11.8659 28.8079L10.088 28.7046L8.42305 28.5922L6.90235 28.478C5.25181 28.3549 3.69852 27.6652 2.51608 26.5303C1.33364 25.3954 0.597903 23.888 0.43845 22.2738L0.36445 21.5035L0.2257 19.8541C0.0847906 18.0727 0.00950834 16.2868 0 14.5C0 12.7183 0.0962 10.8551 0.2257 9.14587L0.36445 7.4965L0.43845 6.72619C0.597841 5.11225 1.33332 3.60516 2.51538 2.47027C3.69744 1.33538 5.25028 0.645461 6.9005 0.522L8.41935 0.406L10.0844 0.295438L11.864 0.192125L13.7214 0.105125C15.3134 0.037568 16.9066 0.00251861 18.5 0ZM14.8 10.1047V18.8953C14.8 19.7327 15.725 20.2547 16.465 19.8378L24.235 15.4425C24.4041 15.3471 24.5445 15.2098 24.6422 15.0444C24.7398 14.8789 24.7912 14.6911 24.7912 14.5C24.7912 14.3089 24.7398 14.1211 24.6422 13.9556C24.5445 13.7902 24.4041 13.6529 24.235 13.5575L16.465 9.164C16.2962 9.06852 16.1047 9.01827 15.9098 9.0183C15.7149 9.01833 15.5235 9.06864 15.3547 9.16417C15.1859 9.2597 15.0458 9.39709 14.9484 9.56251C14.8511 9.72792 14.7999 9.91555 14.8 10.1065V10.1047Z" fill="#8F8F8F"/>
</svg>
